<svg viewBox="0 0 330 200" xmlns="http://www.w3.org/2000/svg"><g><g><g><g><g><line x1="51.53200149536133" y1="161.89799928665164" x2="46.53200149536133" y2="161.89799928665164" style="visibility: inherit;" fill="rgb(0, 0, 0)" stroke="rgb(204, 204, 204)" stroke-width="1px"></line><line x1="51.53200149536133" y1="147.17999935150146" x2="46.53200149536133" y2="147.17999935150146" style="visibility: inherit;" fill="rgb(0, 0, 0)" stroke="rgb(204, 204, 204)" stroke-width="1px"></line><line x1="51.53200149536133" y1="132.46199941635132" x2="46.53200149536133" y2="132.46199941635132" style="visibility: inherit;" fill="rgb(0, 0, 0)" stroke="rgb(204, 204, 204)" stroke-width="1px"></line><line x1="51.53200149536133" y1="117.74399948120119" x2="46.53200149536133" y2="117.74399948120119" style="visibility: inherit;" fill="rgb(0, 0, 0)" stroke="rgb(204, 204, 204)" stroke-width="1px"></line><line x1="51.53200149536133" y1="103.02599954605105" x2="46.53200149536133" y2="103.02599954605105" style="visibility: inherit;" fill="rgb(0, 0, 0)" stroke="rgb(204, 204, 204)" stroke-width="1px"></line><line x1="51.53200149536133" y1="88.30799961090088" x2="46.53200149536133" y2="88.30799961090088" style="visibility: inherit;" fill="rgb(0, 0, 0)" stroke="rgb(204, 204, 204)" stroke-width="1px"></line><line x1="51.53200149536133" y1="73.58999967575076" x2="46.53200149536133" y2="73.58999967575076" style="visibility: inherit;" fill="rgb(0, 0, 0)" stroke="rgb(204, 204, 204)" stroke-width="1px"></line><line x1="51.53200149536133" y1="58.87199974060059" x2="46.53200149536133" y2="58.87199974060059" style="visibility: inherit;" fill="rgb(0, 0, 0)" stroke="rgb(204, 204, 204)" stroke-width="1px"></line><line x1="51.53200149536133" y1="44.15399980545044" x2="46.53200149536133" y2="44.15399980545044" style="visibility: inherit;" fill="rgb(0, 0, 0)" stroke="rgb(204, 204, 204)" stroke-width="1px"></line><line x1="51.53200149536133" y1="29.435999870300325" x2="46.53200149536133" y2="29.435999870300325" style="visibility: inherit;" fill="rgb(0, 0, 0)" stroke="rgb(204, 204, 204)" stroke-width="1px"></line><line x1="51.53200149536133" y1="14.717999935150154" x2="46.53200149536133" y2="14.717999935150154" style="visibility: inherit;" fill="rgb(0, 0, 0)" stroke="rgb(204, 204, 204)" stroke-width="1px"></line><line x1="51.53200149536133" y1="0" x2="46.53200149536133" y2="0" style="visibility: inherit;" fill="rgb(0, 0, 0)" stroke="rgb(204, 204, 204)" stroke-width="1px"></line></g><g transform="translate(41.53200149536133, 0)"><text style="text-anchor: end; visibility: inherit; font-family: Roboto, sans-serif; font-size: 12px; font-weight: 200;" x="0" y="161.89799928665164" dx="0em" dy="0.3em" fill="rgb(33, 33, 33)" stroke="none" stroke-width="1px">0.3</text><text style="text-anchor: end; visibility: hidden; font-family: Roboto, sans-serif; font-size: 12px; font-weight: 200;" x="0" y="147.17999935150146" dx="0em" dy="0.3em" fill="rgb(33, 33, 33)" stroke="none" stroke-width="1px">0.32</text><text style="text-anchor: end; visibility: inherit; font-family: Roboto, sans-serif; font-size: 12px; font-weight: 200;" x="0" y="132.46199941635132" dx="0em" dy="0.3em" fill="rgb(33, 33, 33)" stroke="none" stroke-width="1px">0.34</text><text style="text-anchor: end; visibility: hidden; font-family: Roboto, sans-serif; font-size: 12px; font-weight: 200;" x="0" y="117.74399948120119" dx="0em" dy="0.3em" fill="rgb(33, 33, 33)" stroke="none" stroke-width="1px">0.36</text><text style="text-anchor: end; visibility: inherit; font-family: Roboto, sans-serif; font-size: 12px; font-weight: 200;" x="0" y="103.02599954605105" dx="0em" dy="0.3em" fill="rgb(33, 33, 33)" stroke="none" stroke-width="1px">0.38</text><text style="text-anchor: end; visibility: hidden; font-family: Roboto, sans-serif; font-size: 12px; font-weight: 200;" x="0" y="88.30799961090088" dx="0em" dy="0.3em" fill="rgb(33, 33, 33)" stroke="none" stroke-width="1px">0.4</text><text style="text-anchor: end; visibility: inherit; font-family: Roboto, sans-serif; font-size: 12px; font-weight: 200;" x="0" y="73.58999967575076" dx="0em" dy="0.3em" fill="rgb(33, 33, 33)" stroke="none" stroke-width="1px">0.42</text><text style="text-anchor: end; visibility: hidden; font-family: Roboto, sans-serif; font-size: 12px; font-weight: 200;" x="0" y="58.87199974060059" dx="0em" dy="0.3em" fill="rgb(33, 33, 33)" stroke="none" stroke-width="1px">0.44</text><text style="text-anchor: end; visibility: inherit; font-family: Roboto, sans-serif; font-size: 12px; font-weight: 200;" x="0" y="44.15399980545044" dx="0em" dy="0.3em" fill="rgb(33, 33, 33)" stroke="none" stroke-width="1px">0.46</text><text style="text-anchor: end; visibility: hidden; font-family: Roboto, sans-serif; font-size: 12px; font-weight: 200;" x="0" y="29.435999870300325" dx="0em" dy="0.3em" fill="rgb(33, 33, 33)" stroke="none" stroke-width="1px">0.48</text><text style="text-anchor: end; visibility: inherit; font-family: Roboto, sans-serif; font-size: 12px; font-weight: 200;" x="0" y="14.717999935150154" dx="0em" dy="0.3em" fill="rgb(33, 33, 33)" stroke="none" stroke-width="1px">0.5</text><text style="text-anchor: end; visibility: hidden; font-family: Roboto, sans-serif; font-size: 12px; font-weight: 200;" x="0" y="0" dx="0em" dy="0.3em" fill="rgb(33, 33, 33)" stroke="none" stroke-width="1px">0.52</text></g><line x1="51.53200149536133" y1="0" x2="51.53200149536133" y2="176.61599922180176" fill="rgb(0, 0, 0)" stroke="rgb(204, 204, 204)" stroke-width="1px"></line></g></g><g transform="translate(51, 0)" clip-path="url(#clip_0)"><clipPath id="clip_0"><rect width="278" height="176"></rect></clipPath><g><g><g><line x1="0" y1="0" x2="0" y2="176.61599922180176" fill="rgb(0, 0, 0)" stroke="rgb(66, 66, 66)" stroke-width="1px" opacity="0.25"></line><line x1="23.205666542053223" y1="0" x2="23.205666542053223" y2="176.61599922180176" fill="rgb(0, 0, 0)" stroke="rgb(66, 66, 66)" stroke-width="1px" opacity="0.25"></line><line x1="46.411333084106445" y1="0" x2="46.411333084106445" y2="176.61599922180176" fill="rgb(0, 0, 0)" stroke="rgb(66, 66, 66)" stroke-width="1px" opacity="0.25"></line><line x1="69.61699962615967" y1="0" x2="69.61699962615967" y2="176.61599922180176" fill="rgb(0, 0, 0)" stroke="rgb(66, 66, 66)" stroke-width="1px" opacity="0.25"></line><line x1="92.82266616821289" y1="0" x2="92.82266616821289" y2="176.61599922180176" fill="rgb(0, 0, 0)" stroke="rgb(66, 66, 66)" stroke-width="1px" opacity="0.25"></line><line x1="116.02833271026611" y1="0" x2="116.02833271026611" y2="176.61599922180176" fill="rgb(0, 0, 0)" stroke="rgb(66, 66, 66)" stroke-width="1px" opacity="0.25"></line><line x1="139.23399925231934" y1="0" x2="139.23399925231934" y2="176.61599922180176" fill="rgb(0, 0, 0)" stroke="rgb(66, 66, 66)" stroke-width="1px" opacity="0.25"></line><line x1="162.43966579437256" y1="0" x2="162.43966579437256" y2="176.61599922180176" fill="rgb(0, 0, 0)" stroke="rgb(66, 66, 66)" stroke-width="1px" opacity="0.25"></line><line x1="185.64533233642578" y1="0" x2="185.64533233642578" y2="176.61599922180176" fill="rgb(0, 0, 0)" stroke="rgb(66, 66, 66)" stroke-width="1px" opacity="0.25"></line><line x1="208.850998878479" y1="0" x2="208.850998878479" y2="176.61599922180176" fill="rgb(0, 0, 0)" stroke="rgb(66, 66, 66)" stroke-width="1px" opacity="0.25"></line><line x1="232.05666542053223" y1="0" x2="232.05666542053223" y2="176.61599922180176" fill="rgb(0, 0, 0)" stroke="rgb(66, 66, 66)" stroke-width="1px" opacity="0.25"></line><line x1="255.26233196258545" y1="0" x2="255.26233196258545" y2="176.61599922180176" fill="rgb(0, 0, 0)" stroke="rgb(66, 66, 66)" stroke-width="1px" opacity="0.25"></line><line x1="278.4679985046387" y1="0" x2="278.4679985046387" y2="176.61599922180176" fill="rgb(0, 0, 0)" stroke="rgb(66, 66, 66)" stroke-width="1px" opacity="0.25"></line></g><g><line x1="0" y1="161.89799928665164" x2="278.4679985046387" y2="161.89799928665164" fill="rgb(0, 0, 0)" stroke="rgb(66, 66, 66)" stroke-width="1px" opacity="0.25"></line><line x1="0" y1="147.17999935150146" x2="278.4679985046387" y2="147.17999935150146" fill="rgb(0, 0, 0)" stroke="rgb(66, 66, 66)" stroke-width="1px" opacity="0.25"></line><line x1="0" y1="132.46199941635132" x2="278.4679985046387" y2="132.46199941635132" fill="rgb(0, 0, 0)" stroke="rgb(66, 66, 66)" stroke-width="1px" opacity="0.25"></line><line x1="0" y1="117.74399948120119" x2="278.4679985046387" y2="117.74399948120119" fill="rgb(0, 0, 0)" stroke="rgb(66, 66, 66)" stroke-width="1px" opacity="0.25"></line><line x1="0" y1="103.02599954605105" x2="278.4679985046387" y2="103.02599954605105" fill="rgb(0, 0, 0)" stroke="rgb(66, 66, 66)" stroke-width="1px" opacity="0.25"></line><line x1="0" y1="88.30799961090088" x2="278.4679985046387" y2="88.30799961090088" fill="rgb(0, 0, 0)" stroke="rgb(66, 66, 66)" stroke-width="1px" opacity="0.25"></line><line x1="0" y1="73.58999967575076" x2="278.4679985046387" y2="73.58999967575076" fill="rgb(0, 0, 0)" stroke="rgb(66, 66, 66)" stroke-width="1px" opacity="0.25"></line><line x1="0" y1="58.87199974060059" x2="278.4679985046387" y2="58.87199974060059" fill="rgb(0, 0, 0)" stroke="rgb(66, 66, 66)" stroke-width="1px" opacity="0.25"></line><line x1="0" y1="44.15399980545044" x2="278.4679985046387" y2="44.15399980545044" fill="rgb(0, 0, 0)" stroke="rgb(66, 66, 66)" stroke-width="1px" opacity="0.25"></line><line x1="0" y1="29.435999870300325" x2="278.4679985046387" y2="29.435999870300325" fill="rgb(0, 0, 0)" stroke="rgb(66, 66, 66)" stroke-width="1px" opacity="0.25"></line><line x1="0" y1="14.717999935150154" x2="278.4679985046387" y2="14.717999935150154" fill="rgb(0, 0, 0)" stroke="rgb(66, 66, 66)" stroke-width="1px" opacity="0.25"></line><line x1="0" y1="0" x2="278.4679985046387" y2="0" fill="rgb(0, 0, 0)" stroke="rgb(66, 66, 66)" stroke-width="1px" opacity="0.25"></line></g></g></g><g><g><line x1="0" y1="382.66799831390387" x2="278.4679985046387" y2="382.66799831390387" fill="rgb(0, 0, 0)" stroke="rgb(153, 153, 153)" stroke-width="1.5px"></line></g></g><g><g><line x1="23.205666542053223" y1="0" x2="23.205666542053223" y2="176.61599922180176" fill="rgb(0, 0, 0)" stroke="rgb(153, 153, 153)" stroke-width="1.5px"></line></g></g><g><g><g><g><g><path style="fill: none;" stroke="rgb(0, 119, 187)" stroke-width="2px" d="M32.48793315887451,195.1117973974712L34.808499813079834,157.9396737024224L37.129066467285156,156.18802256843873L39.44963312149048,137.01075334912736L41.7701997756958,160.66138642424576L44.09076642990112,126.83264683140659L46.411333084106445,110.02988420178583L48.73189973831177,101.94895725223851L51.05246639251708,76.75513996815002L53.37303304672242,78.87025309579145L55.693599700927734,70.65355852085455L58.01416635513306,67.45299584767741L60.33473300933838,55.07236640382954L62.6552996635437,56.59938295855177L64.97586631774902,44.57619560593196L67.29643297195435,42.62132885064746L69.61699962615967,31.518201154470066L71.937566280365,31.49144726268511L74.25813293457031,29.71164730305816L76.57869958877563,39.12588145427802L78.89926624298096,39.85435466200351L81.21983289718628,45.59072292027633L83.5403995513916,27.668836739402497L85.86096620559692,32.868322768338864L88.18153285980225,44.57469232985408L90.50209951400757,32.993328657863664L92.82266616821289,20.329655517179113L95.14323282241821,26.056499506571345L97.46379947662354,12.095945047820008L99.78436613082886,4.581820481296768L102.10493278503417,12.677641651962524L104.4254994392395,23.722834481522387L106.74606609344484,19.063660557815187L109.06663274765015,14.311249757222365L111.38719940185547,12.954831766600396L113.70776605606079,16.2602572504574L116.02833271026611,14.472105404756856L118.34889936447144,7.667330250081987L120.66946601867676,13.92702331338298L122.99003267288208,13.70763548242688L125.3105993270874,14.927432370544313L127.63116598129272,23.881317890353905L129.95173263549805,30.88132832679684L132.27229928970337,22.208281539744704L134.5928659439087,30.93362367901002L136.913432598114,39.393904157417886L139.23399925231934,56.81969885015043L141.55456590652466,52.90261134759694L143.87513256073,62.87559723614299L146.1956992149353,50.103808390834125L148.51626586914062,43.42080247670186L150.83683252334595,35.32492699722317L153.15739917755127,35.38336269595244L155.4779658317566,40.12238617017493L157.7985324859619,44.79410023396831L160.11909914016724,41.12260796741476L162.43966579437256,34.497228567635L164.76023244857788,41.58451853511226L167.0807991027832,42.42191659780887L169.4013657569885,35.5101652138834L171.72193241119385,33.518229234567066L174.04249906539917,28.93533068814165L176.3630657196045,34.80243664847128L178.68363237380984,32.165133976203684L181.00419902801514,28.66847202749315L183.32476568222046,33.25232746516283L185.64533233642578,37.55521752508478L187.9658989906311,38.17762385522782L190.28646564483643,41.18211422775758L192.60703229904175,44.86443698088675L194.92759895324707,44.886809793411196L197.2481656074524,40.28287464745365L199.56873226165771,33.53423008559337L201.88929891586304,39.54295656819666L204.20986557006833,40.76525288400305L206.53043222427368,37.010045005388506L208.850998878479,37.676269959608724L211.17156553268433,40.52336179272386L213.49213218688968,41.10145011543192L215.81269884109497,30.49287277126175L218.1332654953003,38.126805517411896L220.45383214950562,41.747099326465325L222.77439880371094,37.78611476884583L225.09496545791626,33.30044784880383L227.41553211212158,32.45998101391386L229.7360987663269,31.0035391973762L232.05666542053223,34.52825278074736L234.37723207473755,40.35586946645677L236.69779872894287,43.47863849848467L239.01836538314816,43.483540653836926L241.33893203735352,42.52478440265783L243.65949869155884,41.810914616384444L245.98006534576416,40.97643837371786L248.3006319999695,39.58992062866606L250.6211986541748,39.915757849601555L252.94176530838013,39.13600895288224L255.26233196258545,40.594984794759135" fill="none"></path></g></g></g></g><g opacity="0.2"><g><g><g><path style="fill: none;" stroke="rgb(0, 119, 187)" stroke-width="2px" d="M30.16736650466919,221.6400017263703L32.48793315887451,129.4123518896961L34.808499813079834,109.40774900616655L37.129066467285156,153.76485845573112L39.44963312149048,109.58695152920453L41.7701997756958,195.1442364938459L44.09076642990112,76.94182682634728L46.411333084106445,85.07973995796699L48.73189973831177,89.90086024059362L51.05246639251708,39.10151768311831L53.37303304672242,82.03601657591132L55.693599700927734,58.34461401849902L58.01416635513306,62.6559139791895L60.33473300933838,36.51015401715379L62.6552996635437,58.889261608405356L64.97586631774902,26.544467262968496L67.29643297195435,39.689326521995234L69.61699962615967,14.86452448005489L71.937566280365,31.4513178922547L74.25813293457031,27.042005928693513L76.57869958877563,53.24704681347692L78.89926624298096,40.94705584413216L81.21983289718628,54.19523453603513L83.5403995513916,0.7860838967496437L85.86096620559692,40.66753850768389L88.18153285980225,62.134228700092216L90.50209951400757,15.621293817950836L92.82266616821289,1.3341528051719382L95.14323282241821,34.6467635915759L97.46379947662354,-8.844883862624075L99.78436613082886,-6.689365471452548L102.10493278503417,24.82137282807396L104.4254994392395,40.29062325117547L106.74606609344484,12.074899792396202L109.06663274765015,7.182633629860745L111.38719940185547,10.920204793259195L113.70776605606079,21.218395457832273L116.02833271026611,11.789877642181871L118.34889936447144,-2.539832468286009L120.66946601867676,23.316562900803554L122.99003267288208,13.378553736151225L125.3105993270874,16.757127702192165L127.63116598129272,37.31214616774149L129.95173263549805,41.38134398036978L132.27229928970337,9.198711359977905L134.5928659439087,44.02163688741833L136.913432598114,52.08432487474477L139.23399925231934,82.95839088889717L141.55456590652466,47.026980093814174L143.87513256073,77.83507606888955L146.1956992149353,30.94612512292666L148.51626586914062,33.3962936055209L150.83683252334595,23.181113778017803L153.15739917755127,35.47101624404628L155.4779658317566,47.230921381506L157.7985324859619,51.80167132965688L160.11909914016724,35.61536956758512L162.43966579437256,24.559159467966033L164.76023244857788,52.21545348632768L167.0807991027832,43.67801369185367L169.4013657569885,25.14253813799538L171.72193241119385,30.5303252655926L174.04249906539917,22.060982868503594L176.3630657196045,43.6030955889657L178.68363237380984,28.209179967802193L181.00419902801514,23.42347910442735L183.32476568222046,40.1281106216673L185.64533233642578,44.00955261496771L187.9658989906311,39.111233350442475L190.28646564483643,45.688849786552154L192.60703229904175,50.38792111058054L194.92759895324707,44.920369012197725L197.2481656074524,33.37697192851731L199.56873226165771,23.41126324280306L201.88929891586304,48.556046292101584L204.20986557006833,42.598697357712574L206.53043222427368,31.377233187466764L208.850998878479,38.67560739093899L211.17156553268433,44.79399954239664L213.49213218688968,41.96858259949405L215.81269884109497,14.580006755006385L218.1332654953003,49.577704636637165L220.45383214950562,47.177540040045436L222.77439880371094,31.844637932416582L225.09496545791626,26.571947468740923L227.41553211212158,31.199280761578855L229.7360987663269,28.818876472569706L232.05666542053223,39.8153231558042L234.37723207473755,49.09729449502091L236.69779872894287,48.16279204652655L239.01836538314816,43.490893886865315L241.33893203735352,41.08665002588917L243.65949869155884,40.74010993697438L245.98006534576416,39.72472400971807L248.3006319999695,37.51014401108829L250.6211986541748,40.40451368100488L252.94176530838013,37.966385607803325L255.26233196258545,42.783448557574495" fill="none"></path></g></g></g></g></g></g><g transform="translate(51, 176)" clip-path="url(#clip_1)"><clipPath id="clip_1"><rect width="278" height="23"></rect></clipPath><g><g><line x1="0" y1="0" x2="0" y2="5" style="visibility: inherit;" fill="rgb(0, 0, 0)" stroke="rgb(204, 204, 204)" stroke-width="1px"></line><line x1="23.205666542053223" y1="0" x2="23.205666542053223" y2="5" style="visibility: inherit;" fill="rgb(0, 0, 0)" stroke="rgb(204, 204, 204)" stroke-width="1px"></line><line x1="46.411333084106445" y1="0" x2="46.411333084106445" y2="5" style="visibility: inherit;" fill="rgb(0, 0, 0)" stroke="rgb(204, 204, 204)" stroke-width="1px"></line><line x1="69.61699962615967" y1="0" x2="69.61699962615967" y2="5" style="visibility: inherit;" fill="rgb(0, 0, 0)" stroke="rgb(204, 204, 204)" stroke-width="1px"></line><line x1="92.82266616821289" y1="0" x2="92.82266616821289" y2="5" style="visibility: inherit;" fill="rgb(0, 0, 0)" stroke="rgb(204, 204, 204)" stroke-width="1px"></line><line x1="116.02833271026611" y1="0" x2="116.02833271026611" y2="5" style="visibility: inherit;" fill="rgb(0, 0, 0)" stroke="rgb(204, 204, 204)" stroke-width="1px"></line><line x1="139.23399925231934" y1="0" x2="139.23399925231934" y2="5" style="visibility: inherit;" fill="rgb(0, 0, 0)" stroke="rgb(204, 204, 204)" stroke-width="1px"></line><line x1="162.43966579437256" y1="0" x2="162.43966579437256" y2="5" style="visibility: inherit;" fill="rgb(0, 0, 0)" stroke="rgb(204, 204, 204)" stroke-width="1px"></line><line x1="185.64533233642578" y1="0" x2="185.64533233642578" y2="5" style="visibility: inherit;" fill="rgb(0, 0, 0)" stroke="rgb(204, 204, 204)" stroke-width="1px"></line><line x1="208.850998878479" y1="0" x2="208.850998878479" y2="5" style="visibility: inherit;" fill="rgb(0, 0, 0)" stroke="rgb(204, 204, 204)" stroke-width="1px"></line><line x1="232.05666542053223" y1="0" x2="232.05666542053223" y2="5" style="visibility: inherit;" fill="rgb(0, 0, 0)" stroke="rgb(204, 204, 204)" stroke-width="1px"></line><line x1="255.26233196258545" y1="0" x2="255.26233196258545" y2="5" style="visibility: inherit;" fill="rgb(0, 0, 0)" stroke="rgb(204, 204, 204)" stroke-width="1px"></line><line x1="278.4679985046387" y1="0" x2="278.4679985046387" y2="5" style="visibility: inherit;" fill="rgb(0, 0, 0)" stroke="rgb(204, 204, 204)" stroke-width="1px"></line></g><g transform="translate(0, 8)"><text style="text-anchor: middle; visibility: hidden; font-family: Roboto, sans-serif; font-size: 12px; font-weight: 200;" x="0" y="0" dx="0em" dy="0.95em" fill="rgb(33, 33, 33)" stroke="none" stroke-width="1px">-1k</text><text style="text-anchor: middle; visibility: inherit; font-family: Roboto, sans-serif; font-size: 12px; font-weight: 200;" x="23.205666542053223" y="0" dx="0em" dy="0.95em" fill="rgb(33, 33, 33)" stroke="none" stroke-width="1px">0</text><text style="text-anchor: middle; visibility: inherit; font-family: Roboto, sans-serif; font-size: 12px; font-weight: 200;" x="46.411333084106445" y="0" dx="0em" dy="0.95em" fill="rgb(33, 33, 33)" stroke="none" stroke-width="1px">1k</text><text style="text-anchor: middle; visibility: inherit; font-family: Roboto, sans-serif; font-size: 12px; font-weight: 200;" x="69.61699962615967" y="0" dx="0em" dy="0.95em" fill="rgb(33, 33, 33)" stroke="none" stroke-width="1px">2k</text><text style="text-anchor: middle; visibility: inherit; font-family: Roboto, sans-serif; font-size: 12px; font-weight: 200;" x="92.82266616821289" y="0" dx="0em" dy="0.95em" fill="rgb(33, 33, 33)" stroke="none" stroke-width="1px">3k</text><text style="text-anchor: middle; visibility: inherit; font-family: Roboto, sans-serif; font-size: 12px; font-weight: 200;" x="116.02833271026611" y="0" dx="0em" dy="0.95em" fill="rgb(33, 33, 33)" stroke="none" stroke-width="1px">4k</text><text style="text-anchor: middle; visibility: inherit; font-family: Roboto, sans-serif; font-size: 12px; font-weight: 200;" x="139.23399925231934" y="0" dx="0em" dy="0.95em" fill="rgb(33, 33, 33)" stroke="none" stroke-width="1px">5k</text><text style="text-anchor: middle; visibility: inherit; font-family: Roboto, sans-serif; font-size: 12px; font-weight: 200;" x="162.43966579437256" y="0" dx="0em" dy="0.95em" fill="rgb(33, 33, 33)" stroke="none" stroke-width="1px">6k</text><text style="text-anchor: middle; visibility: inherit; font-family: Roboto, sans-serif; font-size: 12px; font-weight: 200;" x="185.64533233642578" y="0" dx="0em" dy="0.95em" fill="rgb(33, 33, 33)" stroke="none" stroke-width="1px">7k</text><text style="text-anchor: middle; visibility: inherit; font-family: Roboto, sans-serif; font-size: 12px; font-weight: 200;" x="208.850998878479" y="0" dx="0em" dy="0.95em" fill="rgb(33, 33, 33)" stroke="none" stroke-width="1px">8k</text><text style="text-anchor: middle; visibility: inherit; font-family: Roboto, sans-serif; font-size: 12px; font-weight: 200;" x="232.05666542053223" y="0" dx="0em" dy="0.95em" fill="rgb(33, 33, 33)" stroke="none" stroke-width="1px">9k</text><text style="text-anchor: middle; visibility: inherit; font-family: Roboto, sans-serif; font-size: 12px; font-weight: 200;" x="255.26233196258545" y="0" dx="0em" dy="0.95em" fill="rgb(33, 33, 33)" stroke="none" stroke-width="1px">10k</text><text style="text-anchor: middle; visibility: hidden; font-family: Roboto, sans-serif; font-size: 12px; font-weight: 200;" x="278.4679985046387" y="0" dx="0em" dy="0.95em" fill="rgb(33, 33, 33)" stroke="none" stroke-width="1px">11k</text></g><line x1="0" y1="0" x2="278.4679985046387" y2="0" fill="rgb(0, 0, 0)" stroke="rgb(204, 204, 204)" stroke-width="1px"></line></g></g></g></g></svg>