<svg viewBox="0 0 330 200" xmlns="http://www.w3.org/2000/svg"><g><g><g><g><g><line x1="51.53200149536133" y1="160.55999929254722" x2="46.53200149536133" y2="160.55999929254722" style="visibility: inherit;" fill="rgb(0, 0, 0)" stroke="rgb(204, 204, 204)" stroke-width="1px"></line><line x1="51.53200149536133" y1="144.5039993632925" x2="46.53200149536133" y2="144.5039993632925" style="visibility: inherit;" fill="rgb(0, 0, 0)" stroke="rgb(204, 204, 204)" stroke-width="1px"></line><line x1="51.53200149536133" y1="128.44799943403777" x2="46.53200149536133" y2="128.44799943403777" style="visibility: inherit;" fill="rgb(0, 0, 0)" stroke="rgb(204, 204, 204)" stroke-width="1px"></line><line x1="51.53200149536133" y1="112.39199950478306" x2="46.53200149536133" y2="112.39199950478306" style="visibility: inherit;" fill="rgb(0, 0, 0)" stroke="rgb(204, 204, 204)" stroke-width="1px"></line><line x1="51.53200149536133" y1="96.33599957552835" x2="46.53200149536133" y2="96.33599957552835" style="visibility: inherit;" fill="rgb(0, 0, 0)" stroke="rgb(204, 204, 204)" stroke-width="1px"></line><line x1="51.53200149536133" y1="80.27999964627361" x2="46.53200149536133" y2="80.27999964627361" style="visibility: inherit;" fill="rgb(0, 0, 0)" stroke="rgb(204, 204, 204)" stroke-width="1px"></line><line x1="51.53200149536133" y1="64.22399971701888" x2="46.53200149536133" y2="64.22399971701888" style="visibility: inherit;" fill="rgb(0, 0, 0)" stroke="rgb(204, 204, 204)" stroke-width="1px"></line><line x1="51.53200149536133" y1="48.167999787764174" x2="46.53200149536133" y2="48.167999787764174" style="visibility: inherit;" fill="rgb(0, 0, 0)" stroke="rgb(204, 204, 204)" stroke-width="1px"></line><line x1="51.53200149536133" y1="32.11199985850944" x2="46.53200149536133" y2="32.11199985850944" style="visibility: inherit;" fill="rgb(0, 0, 0)" stroke="rgb(204, 204, 204)" stroke-width="1px"></line><line x1="51.53200149536133" y1="16.05599992925473" x2="46.53200149536133" y2="16.05599992925473" style="visibility: inherit;" fill="rgb(0, 0, 0)" stroke="rgb(204, 204, 204)" stroke-width="1px"></line><line x1="51.53200149536133" y1="0" x2="46.53200149536133" y2="0" style="visibility: inherit;" fill="rgb(0, 0, 0)" stroke="rgb(204, 204, 204)" stroke-width="1px"></line></g><g transform="translate(41.53200149536133, 0)"><text style="text-anchor: end; visibility: inherit; font-family: Roboto, sans-serif; font-size: 12px; font-weight: 200;" x="0" y="160.55999929254722" dx="0em" dy="0.3em" fill="rgb(33, 33, 33)" stroke="none" stroke-width="1px">0.57</text><text style="text-anchor: end; visibility: hidden; font-family: Roboto, sans-serif; font-size: 12px; font-weight: 200;" x="0" y="144.5039993632925" dx="0em" dy="0.3em" fill="rgb(33, 33, 33)" stroke="none" stroke-width="1px">0.58</text><text style="text-anchor: end; visibility: inherit; font-family: Roboto, sans-serif; font-size: 12px; font-weight: 200;" x="0" y="128.44799943403777" dx="0em" dy="0.3em" fill="rgb(33, 33, 33)" stroke="none" stroke-width="1px">0.59</text><text style="text-anchor: end; visibility: hidden; font-family: Roboto, sans-serif; font-size: 12px; font-weight: 200;" x="0" y="112.39199950478306" dx="0em" dy="0.3em" fill="rgb(33, 33, 33)" stroke="none" stroke-width="1px">0.6</text><text style="text-anchor: end; visibility: inherit; font-family: Roboto, sans-serif; font-size: 12px; font-weight: 200;" x="0" y="96.33599957552835" dx="0em" dy="0.3em" fill="rgb(33, 33, 33)" stroke="none" stroke-width="1px">0.61</text><text style="text-anchor: end; visibility: hidden; font-family: Roboto, sans-serif; font-size: 12px; font-weight: 200;" x="0" y="80.27999964627361" dx="0em" dy="0.3em" fill="rgb(33, 33, 33)" stroke="none" stroke-width="1px">0.62</text><text style="text-anchor: end; visibility: inherit; font-family: Roboto, sans-serif; font-size: 12px; font-weight: 200;" x="0" y="64.22399971701888" dx="0em" dy="0.3em" fill="rgb(33, 33, 33)" stroke="none" stroke-width="1px">0.63</text><text style="text-anchor: end; visibility: hidden; font-family: Roboto, sans-serif; font-size: 12px; font-weight: 200;" x="0" y="48.167999787764174" dx="0em" dy="0.3em" fill="rgb(33, 33, 33)" stroke="none" stroke-width="1px">0.64</text><text style="text-anchor: end; visibility: inherit; font-family: Roboto, sans-serif; font-size: 12px; font-weight: 200;" x="0" y="32.11199985850944" dx="0em" dy="0.3em" fill="rgb(33, 33, 33)" stroke="none" stroke-width="1px">0.65</text><text style="text-anchor: end; visibility: hidden; font-family: Roboto, sans-serif; font-size: 12px; font-weight: 200;" x="0" y="16.05599992925473" dx="0em" dy="0.3em" fill="rgb(33, 33, 33)" stroke="none" stroke-width="1px">0.66</text><text style="text-anchor: end; visibility: hidden; font-family: Roboto, sans-serif; font-size: 12px; font-weight: 200;" x="0" y="0" dx="0em" dy="0.3em" fill="rgb(33, 33, 33)" stroke="none" stroke-width="1px">0.67</text></g><line x1="51.53200149536133" y1="0" x2="51.53200149536133" y2="176.61599922180176" fill="rgb(0, 0, 0)" stroke="rgb(204, 204, 204)" stroke-width="1px"></line></g></g><g transform="translate(51, 0)" clip-path="url(#clip_0)"><clipPath id="clip_0"><rect width="278" height="176"></rect></clipPath><g><g><g><line x1="0" y1="0" x2="0" y2="176.61599922180176" fill="rgb(0, 0, 0)" stroke="rgb(66, 66, 66)" stroke-width="1px" opacity="0.25"></line><line x1="23.205666542053223" y1="0" x2="23.205666542053223" y2="176.61599922180176" fill="rgb(0, 0, 0)" stroke="rgb(66, 66, 66)" stroke-width="1px" opacity="0.25"></line><line x1="46.411333084106445" y1="0" x2="46.411333084106445" y2="176.61599922180176" fill="rgb(0, 0, 0)" stroke="rgb(66, 66, 66)" stroke-width="1px" opacity="0.25"></line><line x1="69.61699962615967" y1="0" x2="69.61699962615967" y2="176.61599922180176" fill="rgb(0, 0, 0)" stroke="rgb(66, 66, 66)" stroke-width="1px" opacity="0.25"></line><line x1="92.82266616821289" y1="0" x2="92.82266616821289" y2="176.61599922180176" fill="rgb(0, 0, 0)" stroke="rgb(66, 66, 66)" stroke-width="1px" opacity="0.25"></line><line x1="116.02833271026611" y1="0" x2="116.02833271026611" y2="176.61599922180176" fill="rgb(0, 0, 0)" stroke="rgb(66, 66, 66)" stroke-width="1px" opacity="0.25"></line><line x1="139.23399925231934" y1="0" x2="139.23399925231934" y2="176.61599922180176" fill="rgb(0, 0, 0)" stroke="rgb(66, 66, 66)" stroke-width="1px" opacity="0.25"></line><line x1="162.43966579437256" y1="0" x2="162.43966579437256" y2="176.61599922180176" fill="rgb(0, 0, 0)" stroke="rgb(66, 66, 66)" stroke-width="1px" opacity="0.25"></line><line x1="185.64533233642578" y1="0" x2="185.64533233642578" y2="176.61599922180176" fill="rgb(0, 0, 0)" stroke="rgb(66, 66, 66)" stroke-width="1px" opacity="0.25"></line><line x1="208.850998878479" y1="0" x2="208.850998878479" y2="176.61599922180176" fill="rgb(0, 0, 0)" stroke="rgb(66, 66, 66)" stroke-width="1px" opacity="0.25"></line><line x1="232.05666542053223" y1="0" x2="232.05666542053223" y2="176.61599922180176" fill="rgb(0, 0, 0)" stroke="rgb(66, 66, 66)" stroke-width="1px" opacity="0.25"></line><line x1="255.26233196258545" y1="0" x2="255.26233196258545" y2="176.61599922180176" fill="rgb(0, 0, 0)" stroke="rgb(66, 66, 66)" stroke-width="1px" opacity="0.25"></line><line x1="278.4679985046387" y1="0" x2="278.4679985046387" y2="176.61599922180176" fill="rgb(0, 0, 0)" stroke="rgb(66, 66, 66)" stroke-width="1px" opacity="0.25"></line></g><g><line x1="0" y1="160.55999929254722" x2="278.4679985046387" y2="160.55999929254722" fill="rgb(0, 0, 0)" stroke="rgb(66, 66, 66)" stroke-width="1px" opacity="0.25"></line><line x1="0" y1="144.5039993632925" x2="278.4679985046387" y2="144.5039993632925" fill="rgb(0, 0, 0)" stroke="rgb(66, 66, 66)" stroke-width="1px" opacity="0.25"></line><line x1="0" y1="128.44799943403777" x2="278.4679985046387" y2="128.44799943403777" fill="rgb(0, 0, 0)" stroke="rgb(66, 66, 66)" stroke-width="1px" opacity="0.25"></line><line x1="0" y1="112.39199950478306" x2="278.4679985046387" y2="112.39199950478306" fill="rgb(0, 0, 0)" stroke="rgb(66, 66, 66)" stroke-width="1px" opacity="0.25"></line><line x1="0" y1="96.33599957552835" x2="278.4679985046387" y2="96.33599957552835" fill="rgb(0, 0, 0)" stroke="rgb(66, 66, 66)" stroke-width="1px" opacity="0.25"></line><line x1="0" y1="80.27999964627361" x2="278.4679985046387" y2="80.27999964627361" fill="rgb(0, 0, 0)" stroke="rgb(66, 66, 66)" stroke-width="1px" opacity="0.25"></line><line x1="0" y1="64.22399971701888" x2="278.4679985046387" y2="64.22399971701888" fill="rgb(0, 0, 0)" stroke="rgb(66, 66, 66)" stroke-width="1px" opacity="0.25"></line><line x1="0" y1="48.167999787764174" x2="278.4679985046387" y2="48.167999787764174" fill="rgb(0, 0, 0)" stroke="rgb(66, 66, 66)" stroke-width="1px" opacity="0.25"></line><line x1="0" y1="32.11199985850944" x2="278.4679985046387" y2="32.11199985850944" fill="rgb(0, 0, 0)" stroke="rgb(66, 66, 66)" stroke-width="1px" opacity="0.25"></line><line x1="0" y1="16.05599992925473" x2="278.4679985046387" y2="16.05599992925473" fill="rgb(0, 0, 0)" stroke="rgb(66, 66, 66)" stroke-width="1px" opacity="0.25"></line><line x1="0" y1="0" x2="278.4679985046387" y2="0" fill="rgb(0, 0, 0)" stroke="rgb(66, 66, 66)" stroke-width="1px" opacity="0.25"></line></g></g></g><g><g><line x1="0" y1="1075.7519952600653" x2="278.4679985046387" y2="1075.7519952600653" fill="rgb(0, 0, 0)" stroke="rgb(153, 153, 153)" stroke-width="1.5px"></line></g></g><g><g><line x1="23.205666542053223" y1="0" x2="23.205666542053223" y2="176.61599922180176" fill="rgb(0, 0, 0)" stroke="rgb(153, 153, 153)" stroke-width="1.5px"></line></g></g><g><g><g><g><g><path style="fill: none;" stroke="rgb(0, 119, 187)" stroke-width="2px" d="M34.808499813079834,191.9762034130008L37.129066467285156,166.94924855871895L39.44963312149048,131.02327391500296L41.7701997756958,142.99471408030496L44.09076642990112,108.27321482472897L46.411333084106445,106.45039875386192L48.73189973831177,90.85790468175588L51.05246639251708,55.7576251222249L53.37303304672242,66.56169677438112L55.693599700927734,74.83707481054755L58.01416635513306,99.3308792816879L60.33473300933838,71.59863124821278L62.6552996635437,92.92378952450402L64.97586631774902,57.569110345305575L67.29643297195435,53.52480873876658L69.61699962615967,27.929307288051437L71.937566280365,18.9575095440341L74.25813293457031,17.597391335406833L76.57869958877563,24.60263303367599L78.89926624298096,18.908237581527796L81.21983289718628,14.277471924306019L83.5403995513916,13.123073382568373L85.86096620559692,17.28597572526145L88.18153285980225,30.07994672522514L90.50209951400757,26.007119809037484L92.82266616821289,24.004224523756697L95.14323282241821,56.26174304443317L97.46379947662354,19.38891078451648L99.78436613082886,17.07314595087446L102.10493278503417,4.175002932063947L104.4254994392395,17.352269510677477L106.74606609344484,24.113927901533966L109.06663274765015,19.75970457655377L111.38719940185547,11.952087422937952L113.70776605606079,7.023134520460605L116.02833271026611,0.87600293098565L118.34889936447144,15.479939817053753L120.66946601867676,19.167840596368876L122.99003267288208,15.095499320664686L125.3105993270874,34.34461290823325L127.63116598129272,46.36389747431306L129.95173263549805,52.619489613951096L132.27229928970337,53.38949343194082L134.5928659439087,58.253024386130065L136.913432598114,41.991240927956774L139.23399925231934,47.69014711883457L141.55456590652466,33.91408752385178L143.87513256073,33.91860643553701L146.1956992149353,17.72599219317328L148.51626586914062,8.832956469619946L150.83683252334595,5.527340657806058L153.15739917755127,13.132390966425984L155.4779658317566,39.979028498179204L157.7985324859619,48.95964372380136L160.11909914016724,44.683989101858295L162.43966579437256,63.086809584692965L164.76023244857788,65.97655734930723L167.0807991027832,77.30280697441621L169.4013657569885,78.7456814259295L171.72193241119385,55.826514615333615L174.04249906539917,31.469137672173364L176.3630657196045,36.40788656431826L178.68363237380984,38.02879234625494L181.00419902801514,41.23316476218708L183.32476568222046,41.79629500026827L185.64533233642578,38.10048167834606L187.9658989906311,53.36213196343193L190.28646564483643,55.84342630589585L192.60703229904175,53.16609924244434L194.92759895324707,52.565139992588904L197.2481656074524,41.50547460029092L199.56873226165771,39.70450085935621L201.88929891586304,39.37452040177139L204.20986557006833,40.135458323861975L206.53043222427368,45.60328133564505L208.850998878479,43.59809067122378L211.17156553268433,38.93989436717103L213.49213218688968,41.24102812173352L215.81269884109497,36.43278721720064L218.1332654953003,39.363337682121134L220.45383214950562,43.188354887392066L222.77439880371094,43.831026274353626L225.09496545791626,39.69914884842013L227.41553211212158,35.26882769549419L229.7360987663269,37.0133120816603L232.05666542053223,40.80008168459343L234.37723207473755,47.515742364762524L236.69779872894287,50.41463943397299L239.01836538314816,47.75757859742793L241.33893203735352,46.59928028022572L243.65949869155884,47.024541458308164L245.98006534576416,46.76474905548805L248.3006319999695,46.04565281015578L250.6211986541748,45.10946684328696L252.94176530838013,45.30482845242641L255.26233196258545,46.04268695188809" fill="none"></path></g></g></g></g><g opacity="0.2"><g><g><g><path style="fill: none;" stroke="rgb(0, 119, 187)" stroke-width="2px" d="M27.846799850463867,224.2986483723612L30.16736650466919,174.83499574110857L32.48793315887451,126.72101737644626L34.808499813079834,130.53930454147653L37.129066467285156,132.3279602914995L39.44963312149048,79.64855535889471L41.7701997756958,160.4491887671412L44.09076642990112,57.06574772676974L46.411333084106445,103.7437293269005L48.73189973831177,67.6105863472234L51.05246639251708,3.2982199542633666L53.37303304672242,82.73252708412154L55.693599700927734,87.23392953773735L58.01416635513306,136.04279444070445L60.33473300933838,30.019818127920836L62.6552996635437,124.90250284664766L64.97586631774902,4.546068125721322L67.29643297195435,47.45897243760154L69.61699962615967,-10.461605357804574L71.937566280365,5.5003049627185705L74.25813293457031,15.557258777735269L76.57869958877563,35.11035727480264L78.89926624298096,10.36671185884844L81.21983289718628,7.33135635197429L83.5403995513916,11.391480492943991L85.86096620559692,23.5303185875754L88.18153285980225,49.270883583411305L90.50209951400757,19.897883186405185L92.82266616821289,20.999882702805092L95.14323282241821,104.64801012850387L97.46379947662354,-35.920330268899036L99.78436613082886,13.599498976867439L102.10493278503417,-15.172210672284486L104.4254994392395,37.11816881228159L106.74606609344484,34.25641531346209L109.06663274765015,13.228369656450697L111.38719940185547,0.24066176499191974L113.70776605606079,-0.3702948058024328L116.02833271026611,-8.344694432683768L118.34889936447144,37.38584511687303L120.66946601867676,24.699691760905015L122.99003267288208,8.986987410047961L125.3105993270874,63.21828328124944L127.63116598129272,64.39282432030944L129.95173263549805,62.00287782243233L132.27229928970337,54.5444991588535L134.5928659439087,65.54832081714076L136.913432598114,17.598565741244595L139.23399925231934,56.238506405036276L141.55456590652466,13.249998131544602L143.87513256073,33.92538480306458L146.1956992149353,-6.5629291703013815L148.51626586914062,-4.506597115686985L150.83683252334595,0.5689169400897663L153.15739917755127,24.539966429348645L155.4779658317566,80.24898479579379L157.7985324859619,62.43056656223183L160.11909914016724,38.2705071689443L162.43966579437256,90.69104030894277L164.76023244857788,70.31117899622808L167.0807991027832,94.29218141207885L169.4013657569885,80.9099931031993L171.72193241119385,21.447764399440057L174.04249906539917,-5.066927742566841L176.3630657196045,43.81600990253605L178.68363237380984,40.46015101915966L181.00419902801514,46.039723386085186L183.32476568222046,42.640990357389896L185.64533233642578,32.55676169546274L187.9658989906311,76.2546073910609L190.28646564483643,59.56536781959208L192.60703229904175,49.150108647267416L194.92759895324707,51.6637011178053L197.2481656074524,24.915976511844104L199.56873226165771,37.00304024795425L201.88929891586304,38.87954971539408L204.20986557006833,41.276865206997854L206.53043222427368,53.80501585331966L208.850998878479,40.59030467459205L211.17156553268433,31.952599911091703L213.49213218688968,44.69272875357727L215.81269884109497,29.220425860401217L218.1332654953003,43.759163379501615L220.45383214950562,48.92588069529825L222.77439880371094,44.795033354795805L225.09496545791626,33.501332709519815L227.41553211212158,28.62334596610517L229.7360987663269,39.630038660909314L232.05666542053223,46.480236088993465L234.37723207473755,57.589233385016165L236.69779872894287,54.76298503778888L239.01836538314816,43.771987342610394L241.33893203735352,44.861832804422136L243.65949869155884,47.662433225431855L245.98006534576416,46.37506045125804L248.3006319999695,44.967008442157564L250.6211986541748,43.705187892984085L252.94176530838013,45.5978708661357L255.26233196258545,47.14947470108071" fill="none"></path></g></g></g></g></g></g><g transform="translate(51, 176)" clip-path="url(#clip_1)"><clipPath id="clip_1"><rect width="278" height="23"></rect></clipPath><g><g><line x1="0" y1="0" x2="0" y2="5" style="visibility: inherit;" fill="rgb(0, 0, 0)" stroke="rgb(204, 204, 204)" stroke-width="1px"></line><line x1="23.205666542053223" y1="0" x2="23.205666542053223" y2="5" style="visibility: inherit;" fill="rgb(0, 0, 0)" stroke="rgb(204, 204, 204)" stroke-width="1px"></line><line x1="46.411333084106445" y1="0" x2="46.411333084106445" y2="5" style="visibility: inherit;" fill="rgb(0, 0, 0)" stroke="rgb(204, 204, 204)" stroke-width="1px"></line><line x1="69.61699962615967" y1="0" x2="69.61699962615967" y2="5" style="visibility: inherit;" fill="rgb(0, 0, 0)" stroke="rgb(204, 204, 204)" stroke-width="1px"></line><line x1="92.82266616821289" y1="0" x2="92.82266616821289" y2="5" style="visibility: inherit;" fill="rgb(0, 0, 0)" stroke="rgb(204, 204, 204)" stroke-width="1px"></line><line x1="116.02833271026611" y1="0" x2="116.02833271026611" y2="5" style="visibility: inherit;" fill="rgb(0, 0, 0)" stroke="rgb(204, 204, 204)" stroke-width="1px"></line><line x1="139.23399925231934" y1="0" x2="139.23399925231934" y2="5" style="visibility: inherit;" fill="rgb(0, 0, 0)" stroke="rgb(204, 204, 204)" stroke-width="1px"></line><line x1="162.43966579437256" y1="0" x2="162.43966579437256" y2="5" style="visibility: inherit;" fill="rgb(0, 0, 0)" stroke="rgb(204, 204, 204)" stroke-width="1px"></line><line x1="185.64533233642578" y1="0" x2="185.64533233642578" y2="5" style="visibility: inherit;" fill="rgb(0, 0, 0)" stroke="rgb(204, 204, 204)" stroke-width="1px"></line><line x1="208.850998878479" y1="0" x2="208.850998878479" y2="5" style="visibility: inherit;" fill="rgb(0, 0, 0)" stroke="rgb(204, 204, 204)" stroke-width="1px"></line><line x1="232.05666542053223" y1="0" x2="232.05666542053223" y2="5" style="visibility: inherit;" fill="rgb(0, 0, 0)" stroke="rgb(204, 204, 204)" stroke-width="1px"></line><line x1="255.26233196258545" y1="0" x2="255.26233196258545" y2="5" style="visibility: inherit;" fill="rgb(0, 0, 0)" stroke="rgb(204, 204, 204)" stroke-width="1px"></line><line x1="278.4679985046387" y1="0" x2="278.4679985046387" y2="5" style="visibility: inherit;" fill="rgb(0, 0, 0)" stroke="rgb(204, 204, 204)" stroke-width="1px"></line></g><g transform="translate(0, 8)"><text style="text-anchor: middle; visibility: hidden; font-family: Roboto, sans-serif; font-size: 12px; font-weight: 200;" x="0" y="0" dx="0em" dy="0.95em" fill="rgb(33, 33, 33)" stroke="none" stroke-width="1px">-1k</text><text style="text-anchor: middle; visibility: inherit; font-family: Roboto, sans-serif; font-size: 12px; font-weight: 200;" x="23.205666542053223" y="0" dx="0em" dy="0.95em" fill="rgb(33, 33, 33)" stroke="none" stroke-width="1px">0</text><text style="text-anchor: middle; visibility: inherit; font-family: Roboto, sans-serif; font-size: 12px; font-weight: 200;" x="46.411333084106445" y="0" dx="0em" dy="0.95em" fill="rgb(33, 33, 33)" stroke="none" stroke-width="1px">1k</text><text style="text-anchor: middle; visibility: inherit; font-family: Roboto, sans-serif; font-size: 12px; font-weight: 200;" x="69.61699962615967" y="0" dx="0em" dy="0.95em" fill="rgb(33, 33, 33)" stroke="none" stroke-width="1px">2k</text><text style="text-anchor: middle; visibility: inherit; font-family: Roboto, sans-serif; font-size: 12px; font-weight: 200;" x="92.82266616821289" y="0" dx="0em" dy="0.95em" fill="rgb(33, 33, 33)" stroke="none" stroke-width="1px">3k</text><text style="text-anchor: middle; visibility: inherit; font-family: Roboto, sans-serif; font-size: 12px; font-weight: 200;" x="116.02833271026611" y="0" dx="0em" dy="0.95em" fill="rgb(33, 33, 33)" stroke="none" stroke-width="1px">4k</text><text style="text-anchor: middle; visibility: inherit; font-family: Roboto, sans-serif; font-size: 12px; font-weight: 200;" x="139.23399925231934" y="0" dx="0em" dy="0.95em" fill="rgb(33, 33, 33)" stroke="none" stroke-width="1px">5k</text><text style="text-anchor: middle; visibility: inherit; font-family: Roboto, sans-serif; font-size: 12px; font-weight: 200;" x="162.43966579437256" y="0" dx="0em" dy="0.95em" fill="rgb(33, 33, 33)" stroke="none" stroke-width="1px">6k</text><text style="text-anchor: middle; visibility: inherit; font-family: Roboto, sans-serif; font-size: 12px; font-weight: 200;" x="185.64533233642578" y="0" dx="0em" dy="0.95em" fill="rgb(33, 33, 33)" stroke="none" stroke-width="1px">7k</text><text style="text-anchor: middle; visibility: inherit; font-family: Roboto, sans-serif; font-size: 12px; font-weight: 200;" x="208.850998878479" y="0" dx="0em" dy="0.95em" fill="rgb(33, 33, 33)" stroke="none" stroke-width="1px">8k</text><text style="text-anchor: middle; visibility: inherit; font-family: Roboto, sans-serif; font-size: 12px; font-weight: 200;" x="232.05666542053223" y="0" dx="0em" dy="0.95em" fill="rgb(33, 33, 33)" stroke="none" stroke-width="1px">9k</text><text style="text-anchor: middle; visibility: inherit; font-family: Roboto, sans-serif; font-size: 12px; font-weight: 200;" x="255.26233196258545" y="0" dx="0em" dy="0.95em" fill="rgb(33, 33, 33)" stroke="none" stroke-width="1px">10k</text><text style="text-anchor: middle; visibility: hidden; font-family: Roboto, sans-serif; font-size: 12px; font-weight: 200;" x="278.4679985046387" y="0" dx="0em" dy="0.95em" fill="rgb(33, 33, 33)" stroke="none" stroke-width="1px">11k</text></g><line x1="0" y1="0" x2="278.4679985046387" y2="0" fill="rgb(0, 0, 0)" stroke="rgb(204, 204, 204)" stroke-width="1px"></line></g></g></g></g></svg>