<svg viewBox="0 0 330 200" xmlns="http://www.w3.org/2000/svg"><g><g><g><g><g><line x1="72.29800224304199" y1="176.61599922180176" x2="67.29800224304199" y2="176.61599922180176" style="visibility: inherit;" fill="rgb(0, 0, 0)" stroke="rgb(204, 204, 204)" stroke-width="1px"></line><line x1="72.29800224304199" y1="160.55999929254705" x2="67.29800224304199" y2="160.55999929254705" style="visibility: inherit;" fill="rgb(0, 0, 0)" stroke="rgb(204, 204, 204)" stroke-width="1px"></line><line x1="72.29800224304199" y1="144.50399936329234" x2="67.29800224304199" y2="144.50399936329234" style="visibility: inherit;" fill="rgb(0, 0, 0)" stroke="rgb(204, 204, 204)" stroke-width="1px"></line><line x1="72.29800224304199" y1="128.44799943403765" x2="67.29800224304199" y2="128.44799943403765" style="visibility: inherit;" fill="rgb(0, 0, 0)" stroke="rgb(204, 204, 204)" stroke-width="1px"></line><line x1="72.29800224304199" y1="112.39199950478293" x2="67.29800224304199" y2="112.39199950478293" style="visibility: inherit;" fill="rgb(0, 0, 0)" stroke="rgb(204, 204, 204)" stroke-width="1px"></line><line x1="72.29800224304199" y1="96.33599957552822" x2="67.29800224304199" y2="96.33599957552822" style="visibility: inherit;" fill="rgb(0, 0, 0)" stroke="rgb(204, 204, 204)" stroke-width="1px"></line><line x1="72.29800224304199" y1="80.27999964627351" x2="67.29800224304199" y2="80.27999964627351" style="visibility: inherit;" fill="rgb(0, 0, 0)" stroke="rgb(204, 204, 204)" stroke-width="1px"></line><line x1="72.29800224304199" y1="64.2239997170188" x2="67.29800224304199" y2="64.2239997170188" style="visibility: inherit;" fill="rgb(0, 0, 0)" stroke="rgb(204, 204, 204)" stroke-width="1px"></line><line x1="72.29800224304199" y1="48.16799978776411" x2="67.29800224304199" y2="48.16799978776411" style="visibility: inherit;" fill="rgb(0, 0, 0)" stroke="rgb(204, 204, 204)" stroke-width="1px"></line><line x1="72.29800224304199" y1="32.111999858509385" x2="67.29800224304199" y2="32.111999858509385" style="visibility: inherit;" fill="rgb(0, 0, 0)" stroke="rgb(204, 204, 204)" stroke-width="1px"></line><line x1="72.29800224304199" y1="16.05599992925473" x2="67.29800224304199" y2="16.05599992925473" style="visibility: inherit;" fill="rgb(0, 0, 0)" stroke="rgb(204, 204, 204)" stroke-width="1px"></line><line x1="72.29800224304199" y1="0" x2="67.29800224304199" y2="0" style="visibility: inherit;" fill="rgb(0, 0, 0)" stroke="rgb(204, 204, 204)" stroke-width="1px"></line></g><g transform="translate(62.29800224304199, 0)"><text style="text-anchor: end; visibility: hidden; font-family: Roboto, sans-serif; font-size: 12px; font-weight: 200;" x="0" y="176.61599922180176" dx="0em" dy="0.3em" fill="rgb(33, 33, 33)" stroke="none" stroke-width="1px">5e-4</text><text style="text-anchor: end; visibility: inherit; font-family: Roboto, sans-serif; font-size: 12px; font-weight: 200;" x="0" y="160.55999929254705" dx="0em" dy="0.3em" fill="rgb(33, 33, 33)" stroke="none" stroke-width="1px">1e-3</text><text style="text-anchor: end; visibility: hidden; font-family: Roboto, sans-serif; font-size: 12px; font-weight: 200;" x="0" y="144.50399936329234" dx="0em" dy="0.3em" fill="rgb(33, 33, 33)" stroke="none" stroke-width="1px">1.5e-3</text><text style="text-anchor: end; visibility: inherit; font-family: Roboto, sans-serif; font-size: 12px; font-weight: 200;" x="0" y="128.44799943403765" dx="0em" dy="0.3em" fill="rgb(33, 33, 33)" stroke="none" stroke-width="1px">2e-3</text><text style="text-anchor: end; visibility: hidden; font-family: Roboto, sans-serif; font-size: 12px; font-weight: 200;" x="0" y="112.39199950478293" dx="0em" dy="0.3em" fill="rgb(33, 33, 33)" stroke="none" stroke-width="1px">2.5e-3</text><text style="text-anchor: end; visibility: inherit; font-family: Roboto, sans-serif; font-size: 12px; font-weight: 200;" x="0" y="96.33599957552822" dx="0em" dy="0.3em" fill="rgb(33, 33, 33)" stroke="none" stroke-width="1px">3e-3</text><text style="text-anchor: end; visibility: hidden; font-family: Roboto, sans-serif; font-size: 12px; font-weight: 200;" x="0" y="80.27999964627351" dx="0em" dy="0.3em" fill="rgb(33, 33, 33)" stroke="none" stroke-width="1px">3.5e-3</text><text style="text-anchor: end; visibility: inherit; font-family: Roboto, sans-serif; font-size: 12px; font-weight: 200;" x="0" y="64.2239997170188" dx="0em" dy="0.3em" fill="rgb(33, 33, 33)" stroke="none" stroke-width="1px">4e-3</text><text style="text-anchor: end; visibility: hidden; font-family: Roboto, sans-serif; font-size: 12px; font-weight: 200;" x="0" y="48.16799978776411" dx="0em" dy="0.3em" fill="rgb(33, 33, 33)" stroke="none" stroke-width="1px">4.5e-3</text><text style="text-anchor: end; visibility: inherit; font-family: Roboto, sans-serif; font-size: 12px; font-weight: 200;" x="0" y="32.111999858509385" dx="0em" dy="0.3em" fill="rgb(33, 33, 33)" stroke="none" stroke-width="1px">5e-3</text><text style="text-anchor: end; visibility: hidden; font-family: Roboto, sans-serif; font-size: 12px; font-weight: 200;" x="0" y="16.05599992925473" dx="0em" dy="0.3em" fill="rgb(33, 33, 33)" stroke="none" stroke-width="1px">5.5e-3</text><text style="text-anchor: end; visibility: hidden; font-family: Roboto, sans-serif; font-size: 12px; font-weight: 200;" x="0" y="0" dx="0em" dy="0.3em" fill="rgb(33, 33, 33)" stroke="none" stroke-width="1px">6e-3</text></g><line x1="72.29800224304199" y1="0" x2="72.29800224304199" y2="176.61599922180176" fill="rgb(0, 0, 0)" stroke="rgb(204, 204, 204)" stroke-width="1px"></line></g></g><g transform="translate(72, 0)" clip-path="url(#clip_0)"><clipPath id="clip_0"><rect width="257" height="176"></rect></clipPath><g><g><g><line x1="0" y1="0" x2="0" y2="176.61599922180176" fill="rgb(0, 0, 0)" stroke="rgb(66, 66, 66)" stroke-width="1px" opacity="0.25"></line><line x1="21.4751664797465" y1="0" x2="21.4751664797465" y2="176.61599922180176" fill="rgb(0, 0, 0)" stroke="rgb(66, 66, 66)" stroke-width="1px" opacity="0.25"></line><line x1="42.950332959493" y1="0" x2="42.950332959493" y2="176.61599922180176" fill="rgb(0, 0, 0)" stroke="rgb(66, 66, 66)" stroke-width="1px" opacity="0.25"></line><line x1="64.4254994392395" y1="0" x2="64.4254994392395" y2="176.61599922180176" fill="rgb(0, 0, 0)" stroke="rgb(66, 66, 66)" stroke-width="1px" opacity="0.25"></line><line x1="85.900665918986" y1="0" x2="85.900665918986" y2="176.61599922180176" fill="rgb(0, 0, 0)" stroke="rgb(66, 66, 66)" stroke-width="1px" opacity="0.25"></line><line x1="107.37583239873251" y1="0" x2="107.37583239873251" y2="176.61599922180176" fill="rgb(0, 0, 0)" stroke="rgb(66, 66, 66)" stroke-width="1px" opacity="0.25"></line><line x1="128.850998878479" y1="0" x2="128.850998878479" y2="176.61599922180176" fill="rgb(0, 0, 0)" stroke="rgb(66, 66, 66)" stroke-width="1px" opacity="0.25"></line><line x1="150.32616535822552" y1="0" x2="150.32616535822552" y2="176.61599922180176" fill="rgb(0, 0, 0)" stroke="rgb(66, 66, 66)" stroke-width="1px" opacity="0.25"></line><line x1="171.801331837972" y1="0" x2="171.801331837972" y2="176.61599922180176" fill="rgb(0, 0, 0)" stroke="rgb(66, 66, 66)" stroke-width="1px" opacity="0.25"></line><line x1="193.2764983177185" y1="0" x2="193.2764983177185" y2="176.61599922180176" fill="rgb(0, 0, 0)" stroke="rgb(66, 66, 66)" stroke-width="1px" opacity="0.25"></line><line x1="214.75166479746503" y1="0" x2="214.75166479746503" y2="176.61599922180176" fill="rgb(0, 0, 0)" stroke="rgb(66, 66, 66)" stroke-width="1px" opacity="0.25"></line><line x1="236.2268312772115" y1="0" x2="236.2268312772115" y2="176.61599922180176" fill="rgb(0, 0, 0)" stroke="rgb(66, 66, 66)" stroke-width="1px" opacity="0.25"></line><line x1="257.701997756958" y1="0" x2="257.701997756958" y2="176.61599922180176" fill="rgb(0, 0, 0)" stroke="rgb(66, 66, 66)" stroke-width="1px" opacity="0.25"></line></g><g><line x1="0" y1="176.61599922180176" x2="257.701997756958" y2="176.61599922180176" fill="rgb(0, 0, 0)" stroke="rgb(66, 66, 66)" stroke-width="1px" opacity="0.25"></line><line x1="0" y1="160.55999929254705" x2="257.701997756958" y2="160.55999929254705" fill="rgb(0, 0, 0)" stroke="rgb(66, 66, 66)" stroke-width="1px" opacity="0.25"></line><line x1="0" y1="144.50399936329234" x2="257.701997756958" y2="144.50399936329234" fill="rgb(0, 0, 0)" stroke="rgb(66, 66, 66)" stroke-width="1px" opacity="0.25"></line><line x1="0" y1="128.44799943403765" x2="257.701997756958" y2="128.44799943403765" fill="rgb(0, 0, 0)" stroke="rgb(66, 66, 66)" stroke-width="1px" opacity="0.25"></line><line x1="0" y1="112.39199950478293" x2="257.701997756958" y2="112.39199950478293" fill="rgb(0, 0, 0)" stroke="rgb(66, 66, 66)" stroke-width="1px" opacity="0.25"></line><line x1="0" y1="96.33599957552822" x2="257.701997756958" y2="96.33599957552822" fill="rgb(0, 0, 0)" stroke="rgb(66, 66, 66)" stroke-width="1px" opacity="0.25"></line><line x1="0" y1="80.27999964627351" x2="257.701997756958" y2="80.27999964627351" fill="rgb(0, 0, 0)" stroke="rgb(66, 66, 66)" stroke-width="1px" opacity="0.25"></line><line x1="0" y1="64.2239997170188" x2="257.701997756958" y2="64.2239997170188" fill="rgb(0, 0, 0)" stroke="rgb(66, 66, 66)" stroke-width="1px" opacity="0.25"></line><line x1="0" y1="48.16799978776411" x2="257.701997756958" y2="48.16799978776411" fill="rgb(0, 0, 0)" stroke="rgb(66, 66, 66)" stroke-width="1px" opacity="0.25"></line><line x1="0" y1="32.111999858509385" x2="257.701997756958" y2="32.111999858509385" fill="rgb(0, 0, 0)" stroke="rgb(66, 66, 66)" stroke-width="1px" opacity="0.25"></line><line x1="0" y1="16.05599992925473" x2="257.701997756958" y2="16.05599992925473" fill="rgb(0, 0, 0)" stroke="rgb(66, 66, 66)" stroke-width="1px" opacity="0.25"></line><line x1="0" y1="0" x2="257.701997756958" y2="0" fill="rgb(0, 0, 0)" stroke="rgb(66, 66, 66)" stroke-width="1px" opacity="0.25"></line></g></g></g><g><g><line x1="0" y1="192.67199915105644" x2="257.701997756958" y2="192.67199915105644" fill="rgb(0, 0, 0)" stroke="rgb(153, 153, 153)" stroke-width="1.5px"></line></g></g><g><g><line x1="21.4751664797465" y1="0" x2="21.4751664797465" y2="176.61599922180176" fill="rgb(0, 0, 0)" stroke="rgb(153, 153, 153)" stroke-width="1.5px"></line></g></g><g><g><g><g><g><path style="fill: none;" stroke="rgb(0, 119, 187)" stroke-width="2px" d="M34.3602663675944,-13.316421580967807L36.50778301556905,21.04865160412707L38.6552996635437,37.796143893658446L40.80281631151835,56.645320767302444L42.950332959493,65.4537314539893L45.09784960746765,73.22866526545742L47.2453662554423,81.92006391632489L49.392882903416954,82.7454661412812L51.5403995513916,85.10559210579416L53.687916199366256,87.34694102194621L55.835432847340904,90.51234106292489L57.98294949531555,92.00973214240176L60.1304661432902,90.71376850487391L62.277982791264854,93.87040553790096L64.4254994392395,94.89080059986323L66.57301608721416,97.29674513544659L68.7205327351888,98.49350625039396L70.86804938316345,99.25917354165558L73.0155660311381,98.74923474006985L75.16308267911276,99.52092261661171L77.3105993270874,101.33901165397148L79.45811597506206,101.21625377908711L81.6056326230367,101.46235205100514L83.75314927101135,101.80490950879725L85.900665918986,102.20453199546901L88.04818256696065,100.94293556389377L90.1956992149353,103.77933151461542L92.34321586290996,104.47361152415313L94.4907325108846,103.13414287008236L96.63824915885925,103.45947888789904L98.78576580683391,104.12367926819647L100.93328245480855,103.21764535058733L103.0807991027832,105.27330596117699L105.22831575075786,101.8920344774943L107.37583239873251,102.40281105855996L109.52334904670715,102.03248996062332L111.67086569468181,104.1286473279042L113.81838234265645,105.36994095151968L115.9658989906311,100.98391468120256L118.11341563860574,101.18083512424428L120.2609322865804,103.38337485476411L122.40844893455505,104.11429657481118L124.55596558252971,103.46558209652486L126.70348223050435,104.78325938545294L128.850998878479,103.78300589010168L130.99851552645364,103.86490440544327L133.1460321744283,104.01979934101314L135.29354882240295,103.13088966418506L137.4410654703776,104.19596652290245L139.58858211835224,105.534459937571L141.7360987663269,104.81350213933604L143.88361541430154,103.97281859150823L146.0311320622762,104.04919223421142L148.17864871025085,104.16698971651611L150.32616535822552,104.60009469687387L152.47368200620016,104.90886100709287L154.6211986541748,102.64390645379675L156.76871530214945,102.69180142835636L158.91623195012411,103.64720432753809L161.06374859809875,103.74931794661448L163.2112652460734,103.3725676281261L165.35878189404806,104.14843142418894L167.5062985420227,104.8569620083402L169.65381518999735,104.95467154137297L171.801331837972,105.11783289703783L173.94884848594666,104.66968249022842L176.0963651339213,104.31788209472846L178.24388178189596,104.31508359407675L180.3913984298706,104.32009161623968L182.53891507784527,104.24928387508596L184.68643172581992,104.48920455044944L186.83394837379456,104.33969814502179L188.9814650217692,104.89932407000562L191.12898166974387,104.73041925593515L193.2764983177185,104.83786651685766L195.42401496569315,104.73468727546602L197.57153161366782,104.57875926602892L199.71904826164246,104.89649638538951L201.8665649096171,104.98326395769215L204.01408155759174,104.89577119171156L206.1615982055664,104.78050450560966L208.30911485354105,104.63164631463745L210.45663150151572,104.54733477931742L212.60414814949036,104.48760839187999L214.75166479746503,104.26585201030755L216.89918144543967,104.25750883006654L219.0466980934143,104.28891424441481L221.19421474138895,104.27780301203086L223.34173138936362,104.23293952427368L225.48924803733826,104.15882876887301L227.6367646853129,104.14143080679338L229.78428133328757,104.11740843802508L231.9317979812622,104.15658171708665L234.07931462923685,104.15347177414463L236.2268312772115,104.17164325073688" fill="none"></path></g><g><path style="fill: none;" stroke="rgb(255, 112, 67)" stroke-width="2px" d="M27.917716423670452,-22.006859118340028L30.0652330716451,10.25185521176179L32.21274971961975,34.091497670773656L34.3602663675944,51.437839663596456L36.50778301556905,63.041375980424334L38.6552996635437,71.89154934924868L40.80281631151835,78.43196739440654L42.950332959493,84.27686997903356L45.09784960746765,89.90216584267507L47.2453662554423,94.6812576857634L49.392882903416954,98.54190150891579L51.5403995513916,101.54070857562522L53.687916199366256,102.17167062934799L55.835432847340904,104.8710246098143L57.98294949531555,108.64409956217709L60.1304661432902,109.37517074046339L62.277982791264854,110.14190950777572L64.4254994392395,112.14663885764064L66.57301608721416,113.32453174106139L68.7205327351888,114.94189289895287L70.86804938316345,116.48301169467175L73.0155660311381,117.97155241727616L75.16308267911276,119.65101558634728L77.3105993270874,120.51682210738164L79.45811597506206,120.67377353955153L81.6056326230367,122.82584771250107L83.75314927101135,122.94347700451769L85.900665918986,124.05248775507782L88.04818256696065,125.26290657159281L90.1956992149353,126.90880765089612L92.34321586290996,127.44655546284841L94.4907325108846,128.0664222161862L96.63824915885925,130.07920544902007L98.78576580683391,131.49761991640977L100.93328245480855,132.7006501899718L103.0807991027832,133.20701051593514L105.22831575075786,133.65050263716773L107.37583239873251,134.19821070400187L109.52334904670715,134.50740371052603L111.67086569468181,135.0253167578478L113.81838234265645,135.6346643465764L115.9658989906311,136.22593636996766L118.11341563860574,137.59418893248832L120.2609322865804,138.78834082450382L122.40844893455505,139.5300925950205L124.55596558252971,139.93677045986578L126.70348223050435,140.91404289585395L128.850998878479,141.41939677238435L130.99851552645364,143.14203310361094L133.1460321744283,144.33702846318357L135.29354882240295,144.64471306816435L137.4410654703776,145.08255672860008L139.58858211835224,145.04246726420936L141.7360987663269,146.3130775962369L143.88361541430154,146.7950810982526L146.0311320622762,147.82915867045418L148.17864871025085,147.7152867833085L150.32616535822552,148.48374967384174L152.47368200620016,148.99755877885525L154.6211986541748,149.7663599945041L156.76871530214945,150.85982950692915L158.91623195012411,151.2396128282529L161.06374859809875,151.7322088365512L163.2112652460734,152.30639754483138L165.35878189404806,152.89063334697073L167.5062985420227,154.0746232711241L169.65381518999735,154.6671671579238L171.801331837972,154.39690173520714L173.94884848594666,154.99115593057155L176.0963651339213,156.12062138476756L178.24388178189596,155.75625795347966L180.3913984298706,156.45136820084866L182.53891507784527,157.17153655288323L184.68643172581992,158.030823872513L186.83394837379456,158.50430118669348L188.9814650217692,159.31584333863168L191.12898166974387,159.5137778697283L193.2764983177185,160.03050761424137L195.42401496569315,160.4089194946653L197.57153161366782,160.63593671628925L199.71904826164246,161.0256887326697L201.8665649096171,161.5100655422298L204.01408155759174,161.62848999787894L206.1615982055664,161.86478403780188L208.30911485354105,161.80935315033867L210.45663150151572,161.91208380454685L212.60414814949036,162.15815788198313L214.75166479746503,162.66284039229035L216.89918144543967,163.33536388760848L219.0466980934143,163.8759774551385L221.19421474138895,164.03247893164377L223.34173138936362,163.83418157137191L225.48924803733826,163.98035833085885L227.6367646853129,163.6291516883683L229.78428133328757,163.86591537965361L231.9317979812622,163.6967352920156L234.07931462923685,164.19252619979642L236.2268312772115,164.72075133252088" fill="none"></path></g></g></g></g><g opacity="0.2"><g><g><g><path style="fill: none;" stroke="rgb(0, 119, 187)" stroke-width="2px" d="M23.62268312772115,-2220.43443254868L25.7701997756958,22.583751006873808L27.917716423670452,45.59742645360812L30.0652330716451,45.69269402469725L32.21274971961975,63.606287118794135L34.3602663675944,73.53411457113214L36.50778301556905,70.19125609998379L38.6552996635437,62.214148427721135L40.80281631151835,84.44419539181139L42.950332959493,78.53319475630424L45.09784960746765,84.82054790522474L47.2453662554423,94.90986368498025L49.392882903416954,83.98087439724054L51.5403995513916,88.64115732010437L53.687916199366256,90.70632977466035L55.835432847340904,95.25820863903874L57.98294949531555,94.2551851158956L60.1304661432902,88.77015209360935L62.277982791264854,98.60488020556109L64.4254994392395,96.42129992465613L66.57301608721416,100.90552999110528L68.7205327351888,100.28860854288081L70.86804938316345,100.407659361783L73.0155660311381,97.98433257840247L75.16308267911276,100.67844894659746L77.3105993270874,104.06613745669183L79.45811597506206,101.03211728086436L81.6056326230367,101.83149908106333L83.75314927101135,102.31874537994162L85.900665918986,102.80396550461134L88.04818256696065,99.05054133489L90.1956992149353,108.03392487635007L92.34321586290996,105.5150314555766L94.4907325108846,101.12493998491956L96.63824915885925,103.94748290064223L98.78576580683391,105.11997982151547L100.93328245480855,101.85859448819151L103.0807991027832,108.35679685797878L105.22831575075786,96.82012727080328L107.37583239873251,103.16897592845147L109.52334904670715,101.47700831446087L111.67086569468181,107.27288337630372L113.81838234265645,107.2318813860469L115.9658989906311,94.40487527762652L118.11341563860574,101.47621578875568L120.2609322865804,106.68718445020043L122.40844893455505,105.21067915481338L124.55596558252971,102.49251037913186L126.70348223050435,106.75977531880066L128.850998878479,102.28262564709499L130.99851552645364,103.98775217845464L133.1460321744283,104.25214174436687L135.29354882240295,101.7975251489468L137.4410654703776,105.79358181097577L139.58858211835224,107.54220005957177L141.7360987663269,103.73206544198425L143.88361541430154,102.71179326976699L146.0311320622762,104.16375269826612L148.17864871025085,104.34368593997314L150.32616535822552,105.24975216741045L152.47368200620016,105.37201047242138L154.6211986541748,99.24647462385262L156.76871530214945,102.76364389019572L158.91623195012411,105.08030867631074L161.06374859809875,103.90248837522907L163.2112652460734,102.80744215039351L165.35878189404806,105.31222711828322L167.5062985420227,105.91975788456705L169.65381518999735,105.10123584092213L171.801331837972,105.36257493053515L173.94884848594666,103.99745688001434L176.0963651339213,103.7901815014785L178.24388178189596,104.31088584309919L180.3913984298706,104.327603649484L182.53891507784527,104.1430722633554L184.68643172581992,104.84908556349467L186.83394837379456,104.11543853688033L188.9814650217692,105.73876295748138L191.12898166974387,104.47706203482943L193.2764983177185,104.99903740824145L195.42401496569315,104.57991841337855L197.57153161366782,104.34486725187331L199.71904826164246,105.37310206443041L201.8665649096171,105.11341531614612L204.01408155759174,104.76453204274073L206.1615982055664,104.60760447645681L208.30911485354105,104.40835902817913L210.45663150151572,104.42086747633738L212.60414814949036,104.3980188107238L214.75166479746503,103.93321743794893L216.89918144543967,104.24499405970502L219.0466980934143,104.33602236593717L221.19421474138895,104.26113616345492L223.34173138936362,104.16564429263794L225.48924803733826,104.04766263577197L227.6367646853129,104.11533386367398L229.78428133328757,104.08137488487264L231.9317979812622,104.21534163567901L234.07931462923685,104.1488068597316L236.2268312772115,104.19890046562526" fill="none"></path></g><g><path style="fill: none;" stroke="rgb(255, 112, 67)" stroke-width="2px" d="M23.62268312772115,-241.47543635948836L25.7701997756958,9.830472219008286L27.917716423670452,37.89942988606437L30.0652330716451,48.18810326396149L32.21274971961975,65.21653486525966L34.3602663675944,75.43407532278778L36.50778301556905,79.63461857006925L38.6552996635437,84.79518708265888L40.80281631151835,88.07781360021328L42.950332959493,92.95586912887782L45.09784960746765,98.28908861867588L47.2453662554423,101.82388784363056L49.392882903416954,104.32026157172466L51.5403995513916,106.0330442004627L53.687916199366256,103.11737203772338L55.835432847340904,108.91815178694927L57.98294949531555,114.30211535185187L60.1304661432902,110.47159188899987L62.277982791264854,111.29190085381025L64.4254994392395,115.15354964223468L66.57301608721416,115.0913064677474L68.7205327351888,117.36788141583226L70.86804938316345,118.79465946154784L73.0155660311381,120.20434586799882L75.16308267911276,122.17019840304862L77.3105993270874,121.81552819666386L79.45811597506206,120.90920028621069L81.6056326230367,126.05395566798461L83.75314927101135,123.11992083418937L85.900665918986,125.71600326798468L88.04818256696065,127.07853439497724L90.1956992149353,129.37765894237185L92.34321586290996,128.25317711658053L94.4907325108846,128.99622230179315L96.63824915885925,133.09838021176796L98.78576580683391,133.625241580919L100.93328245480855,134.50519558170203L103.0807991027832,133.96655100017958L105.22831575075786,134.31574081654642L107.37583239873251,135.01977280242272L109.52334904670715,134.97119321969228L111.67086569468181,135.80218632820743L113.81838234265645,136.54868572922942L115.9658989906311,137.11284440479847L118.11341563860574,139.64656777591375L120.2609322865804,140.5795686623409L122.40844893455505,140.6427202507261L124.55596558252971,140.54678725711094L126.70348223050435,142.37995154980328L128.850998878479,142.17742758716975L130.99851552645364,145.72598760042996L133.1460321744283,146.12952150253383L135.29354882240295,145.10623997563414L137.4410654703776,145.73932221925256L139.58858211835224,144.98233306762327L141.7360987663269,148.21899309427704L143.88361541430154,147.51808635127588L146.0311320622762,149.3802750287562L148.17864871025085,147.54447895259003L150.32616535822552,149.63644400964154L152.47368200620016,149.76827243637544L154.6211986541748,150.91956181797744L156.76871530214945,152.5000337755666L158.91623195012411,151.80928781023852L161.06374859809875,152.4711028489986L163.2112652460734,153.16768060725167L165.35878189404806,153.76698705017984L167.5062985420227,155.85060815735412L169.65381518999735,155.55598298812336L171.801331837972,153.9915036011322L173.94884848594666,155.88253722361813L176.0963651339213,157.81481956606157L178.24388178189596,155.20971280654783L180.3913984298706,157.4940335719022L182.53891507784527,158.25178908093508L184.68643172581992,159.31975485195767L186.83394837379456,159.2145171579642L188.9814650217692,160.533156566539L191.12898166974387,159.8106796663732L193.2764983177185,160.805602231011L195.42401496569315,160.97653731530113L197.57153161366782,160.97646254872518L199.71904826164246,161.61031675724035L201.8665649096171,162.23663075656995L204.01408155759174,161.80612668135265L206.1615982055664,162.2192250976863L208.30911485354105,161.72620681914387L210.45663150151572,162.06617978585913L212.60414814949036,162.52726899813754L214.75166479746503,163.41986415775114L216.89918144543967,164.34414913058566L219.0466980934143,164.6868978064335L221.19421474138895,164.2672311464017L223.34173138936362,163.5367355309641L225.48924803733826,164.19962347008925L227.6367646853129,163.10234172463245L229.78428133328757,164.2210609165816L231.9317979812622,163.4429651605586L234.07931462923685,164.93621256146764L236.2268312772115,165.5130890316076" fill="none"></path></g></g></g></g></g></g><g transform="translate(72, 176)" clip-path="url(#clip_1)"><clipPath id="clip_1"><rect width="257" height="23"></rect></clipPath><g><g><line x1="0" y1="0" x2="0" y2="5" style="visibility: inherit;" fill="rgb(0, 0, 0)" stroke="rgb(204, 204, 204)" stroke-width="1px"></line><line x1="21.4751664797465" y1="0" x2="21.4751664797465" y2="5" style="visibility: inherit;" fill="rgb(0, 0, 0)" stroke="rgb(204, 204, 204)" stroke-width="1px"></line><line x1="42.950332959493" y1="0" x2="42.950332959493" y2="5" style="visibility: inherit;" fill="rgb(0, 0, 0)" stroke="rgb(204, 204, 204)" stroke-width="1px"></line><line x1="64.4254994392395" y1="0" x2="64.4254994392395" y2="5" style="visibility: inherit;" fill="rgb(0, 0, 0)" stroke="rgb(204, 204, 204)" stroke-width="1px"></line><line x1="85.900665918986" y1="0" x2="85.900665918986" y2="5" style="visibility: inherit;" fill="rgb(0, 0, 0)" stroke="rgb(204, 204, 204)" stroke-width="1px"></line><line x1="107.37583239873251" y1="0" x2="107.37583239873251" y2="5" style="visibility: inherit;" fill="rgb(0, 0, 0)" stroke="rgb(204, 204, 204)" stroke-width="1px"></line><line x1="128.850998878479" y1="0" x2="128.850998878479" y2="5" style="visibility: inherit;" fill="rgb(0, 0, 0)" stroke="rgb(204, 204, 204)" stroke-width="1px"></line><line x1="150.32616535822552" y1="0" x2="150.32616535822552" y2="5" style="visibility: inherit;" fill="rgb(0, 0, 0)" stroke="rgb(204, 204, 204)" stroke-width="1px"></line><line x1="171.801331837972" y1="0" x2="171.801331837972" y2="5" style="visibility: inherit;" fill="rgb(0, 0, 0)" stroke="rgb(204, 204, 204)" stroke-width="1px"></line><line x1="193.2764983177185" y1="0" x2="193.2764983177185" y2="5" style="visibility: inherit;" fill="rgb(0, 0, 0)" stroke="rgb(204, 204, 204)" stroke-width="1px"></line><line x1="214.75166479746503" y1="0" x2="214.75166479746503" y2="5" style="visibility: inherit;" fill="rgb(0, 0, 0)" stroke="rgb(204, 204, 204)" stroke-width="1px"></line><line x1="236.2268312772115" y1="0" x2="236.2268312772115" y2="5" style="visibility: inherit;" fill="rgb(0, 0, 0)" stroke="rgb(204, 204, 204)" stroke-width="1px"></line><line x1="257.701997756958" y1="0" x2="257.701997756958" y2="5" style="visibility: inherit;" fill="rgb(0, 0, 0)" stroke="rgb(204, 204, 204)" stroke-width="1px"></line></g><g transform="translate(0, 8)"><text style="text-anchor: middle; visibility: hidden; font-family: Roboto, sans-serif; font-size: 12px; font-weight: 200;" x="0" y="0" dx="0em" dy="0.95em" fill="rgb(33, 33, 33)" stroke="none" stroke-width="1px">-1k</text><text style="text-anchor: middle; visibility: inherit; font-family: Roboto, sans-serif; font-size: 12px; font-weight: 200;" x="21.4751664797465" y="0" dx="0em" dy="0.95em" fill="rgb(33, 33, 33)" stroke="none" stroke-width="1px">0</text><text style="text-anchor: middle; visibility: hidden; font-family: Roboto, sans-serif; font-size: 12px; font-weight: 200;" x="42.950332959493" y="0" dx="0em" dy="0.95em" fill="rgb(33, 33, 33)" stroke="none" stroke-width="1px">1k</text><text style="text-anchor: middle; visibility: inherit; font-family: Roboto, sans-serif; font-size: 12px; font-weight: 200;" x="64.4254994392395" y="0" dx="0em" dy="0.95em" fill="rgb(33, 33, 33)" stroke="none" stroke-width="1px">2k</text><text style="text-anchor: middle; visibility: hidden; font-family: Roboto, sans-serif; font-size: 12px; font-weight: 200;" x="85.900665918986" y="0" dx="0em" dy="0.95em" fill="rgb(33, 33, 33)" stroke="none" stroke-width="1px">3k</text><text style="text-anchor: middle; visibility: inherit; font-family: Roboto, sans-serif; font-size: 12px; font-weight: 200;" x="107.37583239873251" y="0" dx="0em" dy="0.95em" fill="rgb(33, 33, 33)" stroke="none" stroke-width="1px">4k</text><text style="text-anchor: middle; visibility: hidden; font-family: Roboto, sans-serif; font-size: 12px; font-weight: 200;" x="128.850998878479" y="0" dx="0em" dy="0.95em" fill="rgb(33, 33, 33)" stroke="none" stroke-width="1px">5k</text><text style="text-anchor: middle; visibility: inherit; font-family: Roboto, sans-serif; font-size: 12px; font-weight: 200;" x="150.32616535822552" y="0" dx="0em" dy="0.95em" fill="rgb(33, 33, 33)" stroke="none" stroke-width="1px">6k</text><text style="text-anchor: middle; visibility: hidden; font-family: Roboto, sans-serif; font-size: 12px; font-weight: 200;" x="171.801331837972" y="0" dx="0em" dy="0.95em" fill="rgb(33, 33, 33)" stroke="none" stroke-width="1px">7k</text><text style="text-anchor: middle; visibility: inherit; font-family: Roboto, sans-serif; font-size: 12px; font-weight: 200;" x="193.2764983177185" y="0" dx="0em" dy="0.95em" fill="rgb(33, 33, 33)" stroke="none" stroke-width="1px">8k</text><text style="text-anchor: middle; visibility: hidden; font-family: Roboto, sans-serif; font-size: 12px; font-weight: 200;" x="214.75166479746503" y="0" dx="0em" dy="0.95em" fill="rgb(33, 33, 33)" stroke="none" stroke-width="1px">9k</text><text style="text-anchor: middle; visibility: inherit; font-family: Roboto, sans-serif; font-size: 12px; font-weight: 200;" x="236.2268312772115" y="0" dx="0em" dy="0.95em" fill="rgb(33, 33, 33)" stroke="none" stroke-width="1px">10k</text><text style="text-anchor: middle; visibility: hidden; font-family: Roboto, sans-serif; font-size: 12px; font-weight: 200;" x="257.701997756958" y="0" dx="0em" dy="0.95em" fill="rgb(33, 33, 33)" stroke="none" stroke-width="1px">11k</text></g><line x1="0" y1="0" x2="257.701997756958" y2="0" fill="rgb(0, 0, 0)" stroke="rgb(204, 204, 204)" stroke-width="1px"></line></g></g></g></g></svg>