<svg viewBox="0 0 330 200" xmlns="http://www.w3.org/2000/svg"><g><g><g><g><g><line x1="51.53200149536133" y1="176.61599922180176" x2="46.53200149536133" y2="176.61599922180176" style="visibility: inherit;" fill="rgb(0, 0, 0)" stroke="rgb(204, 204, 204)" stroke-width="1px"></line><line x1="51.53200149536133" y1="151.3851421901158" x2="46.53200149536133" y2="151.3851421901158" style="visibility: inherit;" fill="rgb(0, 0, 0)" stroke="rgb(204, 204, 204)" stroke-width="1px"></line><line x1="51.53200149536133" y1="126.15428515842981" x2="46.53200149536133" y2="126.15428515842981" style="visibility: inherit;" fill="rgb(0, 0, 0)" stroke="rgb(204, 204, 204)" stroke-width="1px"></line><line x1="51.53200149536133" y1="100.92342812674386" x2="46.53200149536133" y2="100.92342812674386" style="visibility: inherit;" fill="rgb(0, 0, 0)" stroke="rgb(204, 204, 204)" stroke-width="1px"></line><line x1="51.53200149536133" y1="75.6925710950579" x2="46.53200149536133" y2="75.6925710950579" style="visibility: inherit;" fill="rgb(0, 0, 0)" stroke="rgb(204, 204, 204)" stroke-width="1px"></line><line x1="51.53200149536133" y1="50.46171406337193" x2="46.53200149536133" y2="50.46171406337193" style="visibility: inherit;" fill="rgb(0, 0, 0)" stroke="rgb(204, 204, 204)" stroke-width="1px"></line><line x1="51.53200149536133" y1="25.230857031685936" x2="46.53200149536133" y2="25.230857031685936" style="visibility: inherit;" fill="rgb(0, 0, 0)" stroke="rgb(204, 204, 204)" stroke-width="1px"></line><line x1="51.53200149536133" y1="0" x2="46.53200149536133" y2="0" style="visibility: inherit;" fill="rgb(0, 0, 0)" stroke="rgb(204, 204, 204)" stroke-width="1px"></line></g><g transform="translate(41.53200149536133, 0)"><text style="text-anchor: end; visibility: hidden; font-family: Roboto, sans-serif; font-size: 12px; font-weight: 200;" x="0" y="176.61599922180176" dx="0em" dy="0.3em" fill="rgb(33, 33, 33)" stroke="none" stroke-width="1px">0.1</text><text style="text-anchor: end; visibility: inherit; font-family: Roboto, sans-serif; font-size: 12px; font-weight: 200;" x="0" y="151.3851421901158" dx="0em" dy="0.3em" fill="rgb(33, 33, 33)" stroke="none" stroke-width="1px">0.15</text><text style="text-anchor: end; visibility: hidden; font-family: Roboto, sans-serif; font-size: 12px; font-weight: 200;" x="0" y="126.15428515842981" dx="0em" dy="0.3em" fill="rgb(33, 33, 33)" stroke="none" stroke-width="1px">0.2</text><text style="text-anchor: end; visibility: inherit; font-family: Roboto, sans-serif; font-size: 12px; font-weight: 200;" x="0" y="100.92342812674386" dx="0em" dy="0.3em" fill="rgb(33, 33, 33)" stroke="none" stroke-width="1px">0.25</text><text style="text-anchor: end; visibility: hidden; font-family: Roboto, sans-serif; font-size: 12px; font-weight: 200;" x="0" y="75.6925710950579" dx="0em" dy="0.3em" fill="rgb(33, 33, 33)" stroke="none" stroke-width="1px">0.3</text><text style="text-anchor: end; visibility: inherit; font-family: Roboto, sans-serif; font-size: 12px; font-weight: 200;" x="0" y="50.46171406337193" dx="0em" dy="0.3em" fill="rgb(33, 33, 33)" stroke="none" stroke-width="1px">0.35</text><text style="text-anchor: end; visibility: hidden; font-family: Roboto, sans-serif; font-size: 12px; font-weight: 200;" x="0" y="25.230857031685936" dx="0em" dy="0.3em" fill="rgb(33, 33, 33)" stroke="none" stroke-width="1px">0.4</text><text style="text-anchor: end; visibility: hidden; font-family: Roboto, sans-serif; font-size: 12px; font-weight: 200;" x="0" y="0" dx="0em" dy="0.3em" fill="rgb(33, 33, 33)" stroke="none" stroke-width="1px">0.45</text></g><line x1="51.53200149536133" y1="0" x2="51.53200149536133" y2="176.61599922180176" fill="rgb(0, 0, 0)" stroke="rgb(204, 204, 204)" stroke-width="1px"></line></g></g><g transform="translate(51, 0)" clip-path="url(#clip_0)"><clipPath id="clip_0"><rect width="278" height="176"></rect></clipPath><g><g><g><line x1="0" y1="0" x2="0" y2="176.61599922180176" fill="rgb(0, 0, 0)" stroke="rgb(66, 66, 66)" stroke-width="1px" opacity="0.25"></line><line x1="23.205666542053223" y1="0" x2="23.205666542053223" y2="176.61599922180176" fill="rgb(0, 0, 0)" stroke="rgb(66, 66, 66)" stroke-width="1px" opacity="0.25"></line><line x1="46.411333084106445" y1="0" x2="46.411333084106445" y2="176.61599922180176" fill="rgb(0, 0, 0)" stroke="rgb(66, 66, 66)" stroke-width="1px" opacity="0.25"></line><line x1="69.61699962615967" y1="0" x2="69.61699962615967" y2="176.61599922180176" fill="rgb(0, 0, 0)" stroke="rgb(66, 66, 66)" stroke-width="1px" opacity="0.25"></line><line x1="92.82266616821289" y1="0" x2="92.82266616821289" y2="176.61599922180176" fill="rgb(0, 0, 0)" stroke="rgb(66, 66, 66)" stroke-width="1px" opacity="0.25"></line><line x1="116.02833271026611" y1="0" x2="116.02833271026611" y2="176.61599922180176" fill="rgb(0, 0, 0)" stroke="rgb(66, 66, 66)" stroke-width="1px" opacity="0.25"></line><line x1="139.23399925231934" y1="0" x2="139.23399925231934" y2="176.61599922180176" fill="rgb(0, 0, 0)" stroke="rgb(66, 66, 66)" stroke-width="1px" opacity="0.25"></line><line x1="162.43966579437256" y1="0" x2="162.43966579437256" y2="176.61599922180176" fill="rgb(0, 0, 0)" stroke="rgb(66, 66, 66)" stroke-width="1px" opacity="0.25"></line><line x1="185.64533233642578" y1="0" x2="185.64533233642578" y2="176.61599922180176" fill="rgb(0, 0, 0)" stroke="rgb(66, 66, 66)" stroke-width="1px" opacity="0.25"></line><line x1="208.850998878479" y1="0" x2="208.850998878479" y2="176.61599922180176" fill="rgb(0, 0, 0)" stroke="rgb(66, 66, 66)" stroke-width="1px" opacity="0.25"></line><line x1="232.05666542053223" y1="0" x2="232.05666542053223" y2="176.61599922180176" fill="rgb(0, 0, 0)" stroke="rgb(66, 66, 66)" stroke-width="1px" opacity="0.25"></line><line x1="255.26233196258545" y1="0" x2="255.26233196258545" y2="176.61599922180176" fill="rgb(0, 0, 0)" stroke="rgb(66, 66, 66)" stroke-width="1px" opacity="0.25"></line><line x1="278.4679985046387" y1="0" x2="278.4679985046387" y2="176.61599922180176" fill="rgb(0, 0, 0)" stroke="rgb(66, 66, 66)" stroke-width="1px" opacity="0.25"></line></g><g><line x1="0" y1="176.61599922180176" x2="278.4679985046387" y2="176.61599922180176" fill="rgb(0, 0, 0)" stroke="rgb(66, 66, 66)" stroke-width="1px" opacity="0.25"></line><line x1="0" y1="151.3851421901158" x2="278.4679985046387" y2="151.3851421901158" fill="rgb(0, 0, 0)" stroke="rgb(66, 66, 66)" stroke-width="1px" opacity="0.25"></line><line x1="0" y1="126.15428515842981" x2="278.4679985046387" y2="126.15428515842981" fill="rgb(0, 0, 0)" stroke="rgb(66, 66, 66)" stroke-width="1px" opacity="0.25"></line><line x1="0" y1="100.92342812674386" x2="278.4679985046387" y2="100.92342812674386" fill="rgb(0, 0, 0)" stroke="rgb(66, 66, 66)" stroke-width="1px" opacity="0.25"></line><line x1="0" y1="75.6925710950579" x2="278.4679985046387" y2="75.6925710950579" fill="rgb(0, 0, 0)" stroke="rgb(66, 66, 66)" stroke-width="1px" opacity="0.25"></line><line x1="0" y1="50.46171406337193" x2="278.4679985046387" y2="50.46171406337193" fill="rgb(0, 0, 0)" stroke="rgb(66, 66, 66)" stroke-width="1px" opacity="0.25"></line><line x1="0" y1="25.230857031685936" x2="278.4679985046387" y2="25.230857031685936" fill="rgb(0, 0, 0)" stroke="rgb(66, 66, 66)" stroke-width="1px" opacity="0.25"></line><line x1="0" y1="0" x2="278.4679985046387" y2="0" fill="rgb(0, 0, 0)" stroke="rgb(66, 66, 66)" stroke-width="1px" opacity="0.25"></line></g></g></g><g><g><line x1="0" y1="227.0777132851737" x2="278.4679985046387" y2="227.0777132851737" fill="rgb(0, 0, 0)" stroke="rgb(153, 153, 153)" stroke-width="1.5px"></line></g></g><g><g><line x1="23.205666542053223" y1="0" x2="23.205666542053223" y2="176.61599922180176" fill="rgb(0, 0, 0)" stroke="rgb(153, 153, 153)" stroke-width="1.5px"></line></g></g><g><g><g><g><g><path style="fill: none;" stroke="rgb(0, 119, 187)" stroke-width="2px" d="M37.129066467285156,-21.803729852184574L39.44963312149048,13.131740378374529L41.7701997756958,34.90133831424909L44.09076642990112,44.92848215243265L46.411333084106445,56.966462894838365L48.73189973831177,62.37807008060418L51.05246639251708,66.47899676591301L53.37303304672242,65.23074132061798L55.693599700927734,70.40279425909212L58.01416635513306,73.86140743194858L60.33473300933838,74.97588072468211L62.6552996635437,68.24436445949694L64.97586631774902,67.54899679054769L67.29643297195435,69.98212935331065L69.61699962615967,74.39891355632204L71.937566280365,76.74525347698874L74.25813293457031,74.8098755651997L76.57869958877563,77.0950052778415L78.89926624298096,76.76303790404816L81.21983289718628,78.63985128577166L83.5403995513916,80.09180238158625L85.86096620559692,79.84676928135L88.18153285980225,76.6671992659849L90.50209951400757,77.42422597643957L92.82266616821289,79.55318888707424L95.14323282241821,76.59578854869287L97.46379947662354,79.40426150895391L99.78436613082886,80.04251486651611L102.10493278503417,79.2181068327547L104.4254994392395,79.8464064582898L106.74606609344484,78.81946357392458L109.06663274765015,80.92551242866078L111.38719940185547,80.18481152509034L113.70776605606079,79.69924492984889L116.02833271026611,78.44876877965892L118.34889936447144,73.68993096523481L120.66946601867676,76.05277215028552L122.99003267288208,77.30046064037803L125.3105993270874,76.78350169709485L127.63116598129272,73.53037882563096L129.95173263549805,74.23314148076155L132.27229928970337,75.2971828306402L134.5928659439087,71.18004408155716L136.913432598114,72.66977985937497L139.23399925231934,71.44019615577406L141.55456590652466,64.91951832360698L143.87513256073,62.192039800076486L146.1956992149353,66.5268077135923L148.51626586914062,68.28200274162157L150.83683252334595,71.11757406958554L153.15739917755127,71.19052565589664L155.4779658317566,67.52541288673278L157.7985324859619,66.14001447377308L160.11909914016724,68.97606192929834L162.43966579437256,66.7405844343192L164.76023244857788,66.4199907933016L167.0807991027832,66.81096415209554L169.4013657569885,66.84209776995945L171.72193241119385,66.24379766183894L174.04249906539917,65.8069889922026L176.3630657196045,66.51487390753067L178.68363237380984,61.63109607061928L181.00419902801514,62.50330833300863L183.32476568222046,62.80971056164386L185.64533233642578,63.03249627873239L187.9658989906311,62.51985582736192L190.28646564483643,58.92967660329742L192.60703229904175,56.04145487504352L194.92759895324707,56.430912341478546L197.2481656074524,55.051162187520504L199.56873226165771,53.199437036987064L201.88929891586304,50.885066325366886L204.20986557006833,50.77064818507779L206.53043222427368,50.282090984089976L208.850998878479,48.15720528819553L211.17156553268433,46.6562352516597L213.49213218688968,46.63300863059004L215.81269884109497,44.227482286591204L218.1332654953003,42.34931163324623L220.45383214950562,41.066457271962214L222.77439880371094,40.69300402152486L225.09496545791626,39.65876986218787L227.41553211212158,38.77525554637685L229.7360987663269,37.59852828450736L232.05666542053223,35.96136994210196L234.37723207473755,35.4457096969579L236.69779872894287,35.277876430989906L239.01836538314816,34.245230361929L241.33893203735352,33.49524461680805L243.65949869155884,32.86127496227675L245.98006534576416,32.50957509779375L248.3006319999695,32.30271189311628L250.6211986541748,32.13130006934722L252.94176530838013,32.069424580206174L255.26233196258545,32.24121176274936" fill="none"></path></g><g><path style="fill: none;" stroke="rgb(255, 112, 67)" stroke-width="2px" d="M32.48793315887451,-2.278430338846996L34.808499813079834,26.569363412900856L37.129066467285156,44.18555007923962L39.44963312149048,58.70367591989973L41.7701997756958,68.0332481494552L44.09076642990112,73.09010233176022L46.411333084106445,77.64196723720994L48.73189973831177,81.58913341391188L51.05246639251708,85.5877818358663L53.37303304672242,87.93960276887894L55.693599700927734,90.70547544336158L58.01416635513306,92.53881698869259L60.33473300933838,94.26809067037517L62.6552996635437,95.56941383641207L64.97586631774902,95.9188796769198L67.29643297195435,98.07910464650104L69.61699962615967,99.91163773645324L71.937566280365,99.63460460874494L74.25813293457031,101.26529477289182L76.57869958877563,103.26285306219569L78.89926624298096,102.67529683893711L81.21983289718628,104.4450892379445L83.5403995513916,105.2208304620251L85.86096620559692,106.77376448702518L88.18153285980225,108.24814383077525L90.50209951400757,107.67502395042445L92.82266616821289,108.84281282588113L95.14323282241821,110.60081942360749L97.46379947662354,111.56598016912052L99.78436613082886,111.67709130372991L102.10493278503417,112.39443713805646L104.4254994392395,113.92934852502455L106.74606609344484,114.33594258064282L109.06663274765015,116.0414772671361L111.38719940185547,115.56197150158127L113.70776605606079,116.62892369806914L116.02833271026611,117.110595478549L118.34889936447144,116.4825949508354L120.66946601867676,117.95944545697807L122.99003267288208,118.37745321653422L125.3105993270874,120.74707215817317L127.63116598129272,122.85332378434029L129.95173263549805,123.5805398305032L132.27229928970337,122.99619765643175L134.5928659439087,123.55778655056342L136.913432598114,123.86652115268959L139.23399925231934,125.72371741225278L141.55456590652466,126.83262422115894L143.87513256073,126.02894887994609L146.1956992149353,126.3340980967736L148.51626586914062,127.23951744622813L150.83683252334595,128.64857468699321L153.15739917755127,130.28145669333315L155.4779658317566,130.98588931476527L157.7985324859619,132.28761569967253L160.11909914016724,131.61026150154947L162.43966579437256,133.2947212471807L164.76023244857788,134.41165497634563L167.0807991027832,135.7475481536287L169.4013657569885,136.59326794483323L171.72193241119385,136.93225665397404L174.04249906539917,138.27336837131315L176.3630657196045,138.9405179477665L178.68363237380984,139.81658000615877L181.00419902801514,140.6710728730721L183.32476568222046,141.26794355584664L185.64533233642578,141.77000497113758L187.9658989906311,143.14605016000868L190.28646564483643,144.8933428846246L192.60703229904175,145.25734954486288L194.92759895324707,146.3306079450947L197.2481656074524,147.68928319066134L199.56873226165771,148.22833153840307L201.88929891586304,149.4343524450747L204.20986557006833,149.75488403998048L206.53043222427368,150.27215757375555L208.850998878479,151.57644555237096L211.17156553268433,153.08741178802146L213.49213218688968,154.19125197209382L215.81269884109497,154.8017896535454L218.1332654953003,155.1673482932708L220.45383214950562,156.09402265779678L222.77439880371094,156.0209678634668L225.09496545791626,156.5245038408871L227.41553211212158,157.21380438874954L229.7360987663269,157.86820644020764L232.05666542053223,158.44211288574883L234.37723207473755,159.14523651498692L236.69779872894287,159.8364459093639L239.01836538314816,161.01863569998548L241.33893203735352,161.03779669168986L243.65949869155884,161.27452282027798L245.98006534576416,161.10756907108953L248.3006319999695,161.62022038640296L250.6211986541748,161.57304375556802L252.94176530838013,161.90236857750955L255.26233196258545,162.47021480078115" fill="none"></path></g></g></g></g><g opacity="0.2"><g><g><g><path style="fill: none;" stroke="rgb(0, 119, 187)" stroke-width="2px" d="M27.846799850463867,-337.2862058486541L30.16736650466919,31.513612959018026L32.48793315887451,-43.62269235000384L34.808499813079834,50.239669739747875L37.129066467285156,56.304517003200495L39.44963312149048,63.090021775597634L41.7701997756958,66.64162109289441L44.09076642990112,59.71657164133416L46.411333084106445,74.84146134288325L48.73189973831177,70.44639798037234L51.05246639251708,72.6080697319517L53.37303304672242,63.36243392328169L55.693599700927734,78.15074107667371L58.01416635513306,79.04526172127989L60.33473300933838,76.64680465087056L62.6552996635437,58.14993861380337L64.97586631774902,66.50612184089962L67.29643297195435,73.63145753419865L69.61699962615967,81.02368614926809L71.937566280365,80.26463467913128L74.25813293457031,71.90687238195073L76.57869958877563,80.52265473090425L78.89926624298096,76.26509077582821L81.21983289718628,81.45505801877067L83.5403995513916,82.26972283339991L85.86096620559692,79.47922025796817L88.18153285980225,71.89784912432621L90.50209951400757,78.55976534479292L92.82266616821289,82.74663207638088L95.14323282241821,72.1596890218269L97.46379947662354,83.61697039055336L99.78436613082886,80.99989482666479L102.10493278503417,77.98149484116324L104.4254994392395,80.78885586959011L106.74606609344484,77.27904927385754L109.06663274765015,84.08458567818109L111.38719940185547,79.07376017661065L113.70776605606079,78.97089503969119L116.02833271026611,76.57305455855287L118.34889936447144,66.55167425314072L120.66946601867676,79.5970339250189L122.99003267288208,79.17199337461618L125.3105993270874,76.00806328239393L127.63116598129272,68.65069451928053L129.95173263549805,75.28728546334777L132.27229928970337,76.89324485535874L134.5928659439087,65.00433595816367L136.913432598114,74.90438352605153L139.23399925231934,69.59582060039753L141.55456590652466,55.13850157543541L143.87513256073,58.1008220148006L146.1956992149353,73.02895958384715L148.51626586914062,70.91479528366085L150.83683252334595,75.37093106152702L153.15739917755127,71.29995303536322L155.4779658317566,62.02774373298904L157.7985324859619,64.06191685433402L160.11909914016724,73.23013311258569L162.43966579437256,63.38736819185078L164.76023244857788,65.93910033177518L167.0807991027832,67.3974241902864L169.4013657569885,66.88879819675526L171.72193241119385,65.34634749965815L174.04249906539917,65.15177598774822L176.3630657196045,67.57670128052278L178.68363237380984,54.30542931525217L181.00419902801514,63.8116267265927L183.32476568222046,63.26931390459673L185.64533233642578,63.36667485436523L187.9658989906311,61.750895150306235L190.28646564483643,53.54440776720066L192.60703229904175,51.709122282662676L194.92759895324707,57.01509854113096L197.2481656074524,52.9815369565835L199.56873226165771,50.42184931118681L201.88929891586304,47.4135102579366L204.20986557006833,50.59902097464414L206.53043222427368,49.5492551826082L208.850998878479,44.969876744353876L211.17156553268433,44.40478019685599L213.49213218688968,46.598168698985525L215.81269884109497,40.61919277059287L218.1332654953003,39.53205565322873L220.45383214950562,39.14217573003619L222.77439880371094,40.13282414586886L225.09496545791626,38.10741862318236L227.41553211212158,37.44998407266028L229.7360987663269,35.83343739170321L232.05666542053223,33.50563242849383L234.37723207473755,34.672219329241805L236.69779872894287,35.02612653203796L239.01836538314816,32.69626125833765L241.33893203735352,32.370265999126666L243.65949869155884,31.910320480479776L245.98006534576416,31.98202530106925L248.3006319999695,31.992417086100158L250.6211986541748,31.874182333693604L252.94176530838013,31.976611346494543L255.26233196258545,32.49889253656411" fill="none"></path></g><g><path style="fill: none;" stroke="rgb(255, 112, 67)" stroke-width="2px" d="M27.846799850463867,-33.70471857696859L30.16736650466919,46.11264224497314L32.48793315887451,48.42443092589901L34.808499813079834,64.23304293518292L37.129066467285156,68.55507806598611L39.44963312149048,79.46482816205707L41.7701997756958,81.63585402404053L44.09076642990112,80.54798000730372L46.411333084106445,84.40095612925926L48.73189973831177,87.47408217225347L51.05246639251708,91.56399400066604L53.37303304672242,91.45965506500124L55.693599700927734,94.84886582258218L58.01416635513306,95.28667428252359L60.33473300933838,96.86078157512003L62.6552996635437,97.52084790911593L64.97586631774902,96.44298970834234L67.29643297195435,101.3191130123415L69.61699962615967,102.66026987059841L71.937566280365,99.21907011033755L74.25813293457031,103.71127636055772L76.57869958877563,106.25915105784765L78.89926624298096,101.79396946421289L81.21983289718628,107.0997652575287L83.5403995513916,106.38443898996401L85.86096620559692,109.10316155099275L88.18153285980225,110.4597105828808L90.50209951400757,106.81534465782266L92.82266616821289,110.59449549364697L95.14323282241821,113.2378287372229L97.46379947662354,113.01372109535538L99.78436613082886,111.84375799237957L102.10493278503417,113.47045583816421L104.4254994392395,116.23171553951119L106.74606609344484,114.94583365358577L109.06663274765015,118.5997792704886L111.38719940185547,114.84271285770029L113.70776605606079,118.22935198685823L116.02833271026611,117.83310314765907L118.34889936447144,115.54059416052425L120.66946601867676,120.1747212144153L122.99003267288208,119.00446485556668L125.3105993270874,124.30150056960537L127.63116598129272,126.01270122304358L129.95173263549805,124.67136389963417L132.27229928970337,122.11968439537927L134.5928659439087,124.40016989172942L136.913432598114,124.32962305586842L139.23399925231934,128.5095118015601L141.55456590652466,128.4959844345047L143.87513256073,124.82343586813266L146.1956992149353,126.79182192201358L148.51626586914062,128.59764647040754L150.83683252334595,130.76216054813864L153.15739917755127,132.73077970284152L155.4779658317566,132.04253824691307L157.7985324859619,134.2402052770329L160.11909914016724,130.5942302043651L162.43966579437256,135.82141086562729L164.76023244857788,136.08705557009299L167.0807991027832,137.75138791955322L169.4013657569885,137.86184763164L171.72193241119385,137.44073971768526L174.04249906539917,140.28503594732183L176.3630657196045,139.9412423124465L178.68363237380984,141.1306730937472L181.00419902801514,141.95281217344206L183.32476568222046,142.16324958000843L185.64533233642578,142.52309709407405L187.9658989906311,145.2101179433153L190.28646564483643,147.51428197154848L192.60703229904175,145.80335953522035L194.92759895324707,147.9404955454424L197.2481656074524,149.72729605901134L199.56873226165771,149.0369040600157L201.88929891586304,151.24338380508215L204.20986557006833,150.23568143233913L206.53043222427368,151.04806787441817L208.850998878479,153.5328775202941L211.17156553268433,155.35386114149725L213.49213218688968,155.84701224820233L215.81269884109497,155.71759617572275L218.1332654953003,155.7156862528589L220.45383214950562,157.4840342045857L222.77439880371094,155.91138567197189L225.09496545791626,157.27980780701753L227.41553211212158,158.2477552105432L229.7360987663269,158.84980951739485L232.05666542053223,159.3029725540606L234.37723207473755,160.19992195884407L236.69779872894287,160.87326000092935L239.01836538314816,162.79192038591785L241.33893203735352,161.06653817924644L243.65949869155884,161.62961201316017L245.98006534576416,160.85713844730688L248.3006319999695,162.3891973593731L250.6211986541748,161.50227880931558L252.94176530838013,162.39635581042188L255.26233196258545,163.32198413568858" fill="none"></path></g></g></g></g></g></g><g transform="translate(51, 176)" clip-path="url(#clip_1)"><clipPath id="clip_1"><rect width="278" height="23"></rect></clipPath><g><g><line x1="0" y1="0" x2="0" y2="5" style="visibility: inherit;" fill="rgb(0, 0, 0)" stroke="rgb(204, 204, 204)" stroke-width="1px"></line><line x1="23.205666542053223" y1="0" x2="23.205666542053223" y2="5" style="visibility: inherit;" fill="rgb(0, 0, 0)" stroke="rgb(204, 204, 204)" stroke-width="1px"></line><line x1="46.411333084106445" y1="0" x2="46.411333084106445" y2="5" style="visibility: inherit;" fill="rgb(0, 0, 0)" stroke="rgb(204, 204, 204)" stroke-width="1px"></line><line x1="69.61699962615967" y1="0" x2="69.61699962615967" y2="5" style="visibility: inherit;" fill="rgb(0, 0, 0)" stroke="rgb(204, 204, 204)" stroke-width="1px"></line><line x1="92.82266616821289" y1="0" x2="92.82266616821289" y2="5" style="visibility: inherit;" fill="rgb(0, 0, 0)" stroke="rgb(204, 204, 204)" stroke-width="1px"></line><line x1="116.02833271026611" y1="0" x2="116.02833271026611" y2="5" style="visibility: inherit;" fill="rgb(0, 0, 0)" stroke="rgb(204, 204, 204)" stroke-width="1px"></line><line x1="139.23399925231934" y1="0" x2="139.23399925231934" y2="5" style="visibility: inherit;" fill="rgb(0, 0, 0)" stroke="rgb(204, 204, 204)" stroke-width="1px"></line><line x1="162.43966579437256" y1="0" x2="162.43966579437256" y2="5" style="visibility: inherit;" fill="rgb(0, 0, 0)" stroke="rgb(204, 204, 204)" stroke-width="1px"></line><line x1="185.64533233642578" y1="0" x2="185.64533233642578" y2="5" style="visibility: inherit;" fill="rgb(0, 0, 0)" stroke="rgb(204, 204, 204)" stroke-width="1px"></line><line x1="208.850998878479" y1="0" x2="208.850998878479" y2="5" style="visibility: inherit;" fill="rgb(0, 0, 0)" stroke="rgb(204, 204, 204)" stroke-width="1px"></line><line x1="232.05666542053223" y1="0" x2="232.05666542053223" y2="5" style="visibility: inherit;" fill="rgb(0, 0, 0)" stroke="rgb(204, 204, 204)" stroke-width="1px"></line><line x1="255.26233196258545" y1="0" x2="255.26233196258545" y2="5" style="visibility: inherit;" fill="rgb(0, 0, 0)" stroke="rgb(204, 204, 204)" stroke-width="1px"></line><line x1="278.4679985046387" y1="0" x2="278.4679985046387" y2="5" style="visibility: inherit;" fill="rgb(0, 0, 0)" stroke="rgb(204, 204, 204)" stroke-width="1px"></line></g><g transform="translate(0, 8)"><text style="text-anchor: middle; visibility: hidden; font-family: Roboto, sans-serif; font-size: 12px; font-weight: 200;" x="0" y="0" dx="0em" dy="0.95em" fill="rgb(33, 33, 33)" stroke="none" stroke-width="1px">-1k</text><text style="text-anchor: middle; visibility: inherit; font-family: Roboto, sans-serif; font-size: 12px; font-weight: 200;" x="23.205666542053223" y="0" dx="0em" dy="0.95em" fill="rgb(33, 33, 33)" stroke="none" stroke-width="1px">0</text><text style="text-anchor: middle; visibility: inherit; font-family: Roboto, sans-serif; font-size: 12px; font-weight: 200;" x="46.411333084106445" y="0" dx="0em" dy="0.95em" fill="rgb(33, 33, 33)" stroke="none" stroke-width="1px">1k</text><text style="text-anchor: middle; visibility: inherit; font-family: Roboto, sans-serif; font-size: 12px; font-weight: 200;" x="69.61699962615967" y="0" dx="0em" dy="0.95em" fill="rgb(33, 33, 33)" stroke="none" stroke-width="1px">2k</text><text style="text-anchor: middle; visibility: inherit; font-family: Roboto, sans-serif; font-size: 12px; font-weight: 200;" x="92.82266616821289" y="0" dx="0em" dy="0.95em" fill="rgb(33, 33, 33)" stroke="none" stroke-width="1px">3k</text><text style="text-anchor: middle; visibility: inherit; font-family: Roboto, sans-serif; font-size: 12px; font-weight: 200;" x="116.02833271026611" y="0" dx="0em" dy="0.95em" fill="rgb(33, 33, 33)" stroke="none" stroke-width="1px">4k</text><text style="text-anchor: middle; visibility: inherit; font-family: Roboto, sans-serif; font-size: 12px; font-weight: 200;" x="139.23399925231934" y="0" dx="0em" dy="0.95em" fill="rgb(33, 33, 33)" stroke="none" stroke-width="1px">5k</text><text style="text-anchor: middle; visibility: inherit; font-family: Roboto, sans-serif; font-size: 12px; font-weight: 200;" x="162.43966579437256" y="0" dx="0em" dy="0.95em" fill="rgb(33, 33, 33)" stroke="none" stroke-width="1px">6k</text><text style="text-anchor: middle; visibility: inherit; font-family: Roboto, sans-serif; font-size: 12px; font-weight: 200;" x="185.64533233642578" y="0" dx="0em" dy="0.95em" fill="rgb(33, 33, 33)" stroke="none" stroke-width="1px">7k</text><text style="text-anchor: middle; visibility: inherit; font-family: Roboto, sans-serif; font-size: 12px; font-weight: 200;" x="208.850998878479" y="0" dx="0em" dy="0.95em" fill="rgb(33, 33, 33)" stroke="none" stroke-width="1px">8k</text><text style="text-anchor: middle; visibility: inherit; font-family: Roboto, sans-serif; font-size: 12px; font-weight: 200;" x="232.05666542053223" y="0" dx="0em" dy="0.95em" fill="rgb(33, 33, 33)" stroke="none" stroke-width="1px">9k</text><text style="text-anchor: middle; visibility: inherit; font-family: Roboto, sans-serif; font-size: 12px; font-weight: 200;" x="255.26233196258545" y="0" dx="0em" dy="0.95em" fill="rgb(33, 33, 33)" stroke="none" stroke-width="1px">10k</text><text style="text-anchor: middle; visibility: hidden; font-family: Roboto, sans-serif; font-size: 12px; font-weight: 200;" x="278.4679985046387" y="0" dx="0em" dy="0.95em" fill="rgb(33, 33, 33)" stroke="none" stroke-width="1px">11k</text></g><line x1="0" y1="0" x2="278.4679985046387" y2="0" fill="rgb(0, 0, 0)" stroke="rgb(204, 204, 204)" stroke-width="1px"></line></g></g></g></g></svg>