<svg viewBox="0 0 330 200" xmlns="http://www.w3.org/2000/svg"><g><g><g><g><g><line x1="51.53200149536133" y1="176.61599922180176" x2="46.53200149536133" y2="176.61599922180176" style="visibility: inherit;" fill="rgb(0, 0, 0)" stroke="rgb(204, 204, 204)" stroke-width="1px"></line><line x1="51.53200149536133" y1="164.00057070595875" x2="46.53200149536133" y2="164.00057070595875" style="visibility: inherit;" fill="rgb(0, 0, 0)" stroke="rgb(204, 204, 204)" stroke-width="1px"></line><line x1="51.53200149536133" y1="151.38514219011577" x2="46.53200149536133" y2="151.38514219011577" style="visibility: inherit;" fill="rgb(0, 0, 0)" stroke="rgb(204, 204, 204)" stroke-width="1px"></line><line x1="51.53200149536133" y1="138.7697136742728" x2="46.53200149536133" y2="138.7697136742728" style="visibility: inherit;" fill="rgb(0, 0, 0)" stroke="rgb(204, 204, 204)" stroke-width="1px"></line><line x1="51.53200149536133" y1="126.15428515842981" x2="46.53200149536133" y2="126.15428515842981" style="visibility: inherit;" fill="rgb(0, 0, 0)" stroke="rgb(204, 204, 204)" stroke-width="1px"></line><line x1="51.53200149536133" y1="113.53885664258685" x2="46.53200149536133" y2="113.53885664258685" style="visibility: inherit;" fill="rgb(0, 0, 0)" stroke="rgb(204, 204, 204)" stroke-width="1px"></line><line x1="51.53200149536133" y1="100.92342812674386" x2="46.53200149536133" y2="100.92342812674386" style="visibility: inherit;" fill="rgb(0, 0, 0)" stroke="rgb(204, 204, 204)" stroke-width="1px"></line><line x1="51.53200149536133" y1="88.30799961090088" x2="46.53200149536133" y2="88.30799961090088" style="visibility: inherit;" fill="rgb(0, 0, 0)" stroke="rgb(204, 204, 204)" stroke-width="1px"></line><line x1="51.53200149536133" y1="75.6925710950579" x2="46.53200149536133" y2="75.6925710950579" style="visibility: inherit;" fill="rgb(0, 0, 0)" stroke="rgb(204, 204, 204)" stroke-width="1px"></line><line x1="51.53200149536133" y1="63.07714257921491" x2="46.53200149536133" y2="63.07714257921491" style="visibility: inherit;" fill="rgb(0, 0, 0)" stroke="rgb(204, 204, 204)" stroke-width="1px"></line><line x1="51.53200149536133" y1="50.46171406337195" x2="46.53200149536133" y2="50.46171406337195" style="visibility: inherit;" fill="rgb(0, 0, 0)" stroke="rgb(204, 204, 204)" stroke-width="1px"></line><line x1="51.53200149536133" y1="37.84628554752895" x2="46.53200149536133" y2="37.84628554752895" style="visibility: inherit;" fill="rgb(0, 0, 0)" stroke="rgb(204, 204, 204)" stroke-width="1px"></line><line x1="51.53200149536133" y1="25.230857031685993" x2="46.53200149536133" y2="25.230857031685993" style="visibility: inherit;" fill="rgb(0, 0, 0)" stroke="rgb(204, 204, 204)" stroke-width="1px"></line><line x1="51.53200149536133" y1="12.615428515842996" x2="46.53200149536133" y2="12.615428515842996" style="visibility: inherit;" fill="rgb(0, 0, 0)" stroke="rgb(204, 204, 204)" stroke-width="1px"></line><line x1="51.53200149536133" y1="0" x2="46.53200149536133" y2="0" style="visibility: inherit;" fill="rgb(0, 0, 0)" stroke="rgb(204, 204, 204)" stroke-width="1px"></line></g><g transform="translate(41.53200149536133, 0)"><text style="text-anchor: end; visibility: hidden; font-family: Roboto, sans-serif; font-size: 12px; font-weight: 200;" x="0" y="176.61599922180176" dx="0em" dy="0.3em" fill="rgb(33, 33, 33)" stroke="none" stroke-width="1px">0.35</text><text style="text-anchor: end; visibility: inherit; font-family: Roboto, sans-serif; font-size: 12px; font-weight: 200;" x="0" y="164.00057070595875" dx="0em" dy="0.3em" fill="rgb(33, 33, 33)" stroke="none" stroke-width="1px">0.4</text><text style="text-anchor: end; visibility: hidden; font-family: Roboto, sans-serif; font-size: 12px; font-weight: 200;" x="0" y="151.38514219011577" dx="0em" dy="0.3em" fill="rgb(33, 33, 33)" stroke="none" stroke-width="1px">0.45</text><text style="text-anchor: end; visibility: hidden; font-family: Roboto, sans-serif; font-size: 12px; font-weight: 200;" x="0" y="138.7697136742728" dx="0em" dy="0.3em" fill="rgb(33, 33, 33)" stroke="none" stroke-width="1px">0.5</text><text style="text-anchor: end; visibility: inherit; font-family: Roboto, sans-serif; font-size: 12px; font-weight: 200;" x="0" y="126.15428515842981" dx="0em" dy="0.3em" fill="rgb(33, 33, 33)" stroke="none" stroke-width="1px">0.55</text><text style="text-anchor: end; visibility: hidden; font-family: Roboto, sans-serif; font-size: 12px; font-weight: 200;" x="0" y="113.53885664258685" dx="0em" dy="0.3em" fill="rgb(33, 33, 33)" stroke="none" stroke-width="1px">0.6</text><text style="text-anchor: end; visibility: hidden; font-family: Roboto, sans-serif; font-size: 12px; font-weight: 200;" x="0" y="100.92342812674386" dx="0em" dy="0.3em" fill="rgb(33, 33, 33)" stroke="none" stroke-width="1px">0.65</text><text style="text-anchor: end; visibility: inherit; font-family: Roboto, sans-serif; font-size: 12px; font-weight: 200;" x="0" y="88.30799961090088" dx="0em" dy="0.3em" fill="rgb(33, 33, 33)" stroke="none" stroke-width="1px">0.7</text><text style="text-anchor: end; visibility: hidden; font-family: Roboto, sans-serif; font-size: 12px; font-weight: 200;" x="0" y="75.6925710950579" dx="0em" dy="0.3em" fill="rgb(33, 33, 33)" stroke="none" stroke-width="1px">0.75</text><text style="text-anchor: end; visibility: hidden; font-family: Roboto, sans-serif; font-size: 12px; font-weight: 200;" x="0" y="63.07714257921491" dx="0em" dy="0.3em" fill="rgb(33, 33, 33)" stroke="none" stroke-width="1px">0.8</text><text style="text-anchor: end; visibility: inherit; font-family: Roboto, sans-serif; font-size: 12px; font-weight: 200;" x="0" y="50.46171406337195" dx="0em" dy="0.3em" fill="rgb(33, 33, 33)" stroke="none" stroke-width="1px">0.85</text><text style="text-anchor: end; visibility: hidden; font-family: Roboto, sans-serif; font-size: 12px; font-weight: 200;" x="0" y="37.84628554752895" dx="0em" dy="0.3em" fill="rgb(33, 33, 33)" stroke="none" stroke-width="1px">0.9</text><text style="text-anchor: end; visibility: hidden; font-family: Roboto, sans-serif; font-size: 12px; font-weight: 200;" x="0" y="25.230857031685993" dx="0em" dy="0.3em" fill="rgb(33, 33, 33)" stroke="none" stroke-width="1px">0.95</text><text style="text-anchor: end; visibility: inherit; font-family: Roboto, sans-serif; font-size: 12px; font-weight: 200;" x="0" y="12.615428515842996" dx="0em" dy="0.3em" fill="rgb(33, 33, 33)" stroke="none" stroke-width="1px">1</text><text style="text-anchor: end; visibility: hidden; font-family: Roboto, sans-serif; font-size: 12px; font-weight: 200;" x="0" y="0" dx="0em" dy="0.3em" fill="rgb(33, 33, 33)" stroke="none" stroke-width="1px">1.05</text></g><line x1="51.53200149536133" y1="0" x2="51.53200149536133" y2="176.61599922180176" fill="rgb(0, 0, 0)" stroke="rgb(204, 204, 204)" stroke-width="1px"></line></g></g><g transform="translate(51, 0)" clip-path="url(#clip_0)"><clipPath id="clip_0"><rect width="278" height="176"></rect></clipPath><g><g><g><line x1="0" y1="0" x2="0" y2="176.61599922180176" fill="rgb(0, 0, 0)" stroke="rgb(66, 66, 66)" stroke-width="1px" opacity="0.25"></line><line x1="23.205666542053223" y1="0" x2="23.205666542053223" y2="176.61599922180176" fill="rgb(0, 0, 0)" stroke="rgb(66, 66, 66)" stroke-width="1px" opacity="0.25"></line><line x1="46.411333084106445" y1="0" x2="46.411333084106445" y2="176.61599922180176" fill="rgb(0, 0, 0)" stroke="rgb(66, 66, 66)" stroke-width="1px" opacity="0.25"></line><line x1="69.61699962615967" y1="0" x2="69.61699962615967" y2="176.61599922180176" fill="rgb(0, 0, 0)" stroke="rgb(66, 66, 66)" stroke-width="1px" opacity="0.25"></line><line x1="92.82266616821289" y1="0" x2="92.82266616821289" y2="176.61599922180176" fill="rgb(0, 0, 0)" stroke="rgb(66, 66, 66)" stroke-width="1px" opacity="0.25"></line><line x1="116.02833271026611" y1="0" x2="116.02833271026611" y2="176.61599922180176" fill="rgb(0, 0, 0)" stroke="rgb(66, 66, 66)" stroke-width="1px" opacity="0.25"></line><line x1="139.23399925231934" y1="0" x2="139.23399925231934" y2="176.61599922180176" fill="rgb(0, 0, 0)" stroke="rgb(66, 66, 66)" stroke-width="1px" opacity="0.25"></line><line x1="162.43966579437256" y1="0" x2="162.43966579437256" y2="176.61599922180176" fill="rgb(0, 0, 0)" stroke="rgb(66, 66, 66)" stroke-width="1px" opacity="0.25"></line><line x1="185.64533233642578" y1="0" x2="185.64533233642578" y2="176.61599922180176" fill="rgb(0, 0, 0)" stroke="rgb(66, 66, 66)" stroke-width="1px" opacity="0.25"></line><line x1="208.850998878479" y1="0" x2="208.850998878479" y2="176.61599922180176" fill="rgb(0, 0, 0)" stroke="rgb(66, 66, 66)" stroke-width="1px" opacity="0.25"></line><line x1="232.05666542053223" y1="0" x2="232.05666542053223" y2="176.61599922180176" fill="rgb(0, 0, 0)" stroke="rgb(66, 66, 66)" stroke-width="1px" opacity="0.25"></line><line x1="255.26233196258545" y1="0" x2="255.26233196258545" y2="176.61599922180176" fill="rgb(0, 0, 0)" stroke="rgb(66, 66, 66)" stroke-width="1px" opacity="0.25"></line><line x1="278.4679985046387" y1="0" x2="278.4679985046387" y2="176.61599922180176" fill="rgb(0, 0, 0)" stroke="rgb(66, 66, 66)" stroke-width="1px" opacity="0.25"></line></g><g><line x1="0" y1="176.61599922180176" x2="278.4679985046387" y2="176.61599922180176" fill="rgb(0, 0, 0)" stroke="rgb(66, 66, 66)" stroke-width="1px" opacity="0.25"></line><line x1="0" y1="164.00057070595875" x2="278.4679985046387" y2="164.00057070595875" fill="rgb(0, 0, 0)" stroke="rgb(66, 66, 66)" stroke-width="1px" opacity="0.25"></line><line x1="0" y1="151.38514219011577" x2="278.4679985046387" y2="151.38514219011577" fill="rgb(0, 0, 0)" stroke="rgb(66, 66, 66)" stroke-width="1px" opacity="0.25"></line><line x1="0" y1="138.7697136742728" x2="278.4679985046387" y2="138.7697136742728" fill="rgb(0, 0, 0)" stroke="rgb(66, 66, 66)" stroke-width="1px" opacity="0.25"></line><line x1="0" y1="126.15428515842981" x2="278.4679985046387" y2="126.15428515842981" fill="rgb(0, 0, 0)" stroke="rgb(66, 66, 66)" stroke-width="1px" opacity="0.25"></line><line x1="0" y1="113.53885664258685" x2="278.4679985046387" y2="113.53885664258685" fill="rgb(0, 0, 0)" stroke="rgb(66, 66, 66)" stroke-width="1px" opacity="0.25"></line><line x1="0" y1="100.92342812674386" x2="278.4679985046387" y2="100.92342812674386" fill="rgb(0, 0, 0)" stroke="rgb(66, 66, 66)" stroke-width="1px" opacity="0.25"></line><line x1="0" y1="88.30799961090088" x2="278.4679985046387" y2="88.30799961090088" fill="rgb(0, 0, 0)" stroke="rgb(66, 66, 66)" stroke-width="1px" opacity="0.25"></line><line x1="0" y1="75.6925710950579" x2="278.4679985046387" y2="75.6925710950579" fill="rgb(0, 0, 0)" stroke="rgb(66, 66, 66)" stroke-width="1px" opacity="0.25"></line><line x1="0" y1="63.07714257921491" x2="278.4679985046387" y2="63.07714257921491" fill="rgb(0, 0, 0)" stroke="rgb(66, 66, 66)" stroke-width="1px" opacity="0.25"></line><line x1="0" y1="50.46171406337195" x2="278.4679985046387" y2="50.46171406337195" fill="rgb(0, 0, 0)" stroke="rgb(66, 66, 66)" stroke-width="1px" opacity="0.25"></line><line x1="0" y1="37.84628554752895" x2="278.4679985046387" y2="37.84628554752895" fill="rgb(0, 0, 0)" stroke="rgb(66, 66, 66)" stroke-width="1px" opacity="0.25"></line><line x1="0" y1="25.230857031685993" x2="278.4679985046387" y2="25.230857031685993" fill="rgb(0, 0, 0)" stroke="rgb(66, 66, 66)" stroke-width="1px" opacity="0.25"></line><line x1="0" y1="12.615428515842996" x2="278.4679985046387" y2="12.615428515842996" fill="rgb(0, 0, 0)" stroke="rgb(66, 66, 66)" stroke-width="1px" opacity="0.25"></line><line x1="0" y1="0" x2="278.4679985046387" y2="0" fill="rgb(0, 0, 0)" stroke="rgb(66, 66, 66)" stroke-width="1px" opacity="0.25"></line></g></g></g><g><g><line x1="0" y1="264.92399883270264" x2="278.4679985046387" y2="264.92399883270264" fill="rgb(0, 0, 0)" stroke="rgb(153, 153, 153)" stroke-width="1.5px"></line></g></g><g><g><line x1="23.205666542053223" y1="0" x2="23.205666542053223" y2="176.61599922180176" fill="rgb(0, 0, 0)" stroke="rgb(153, 153, 153)" stroke-width="1.5px"></line></g></g><g><g><g><g><g><path style="fill: none;" stroke="rgb(0, 119, 187)" stroke-width="2px" d="M37.129066467285156,-12.528974439227769L39.44963312149048,18.941142686791583L41.7701997756958,36.924708165215115L44.09076642990112,49.86281178376144L46.411333084106445,59.86110162109751L48.73189973831177,66.14449180043586L51.05246639251708,72.12835087308552L53.37303304672242,72.34173018194295L55.693599700927734,76.3571682284097L58.01416635513306,79.45435814674003L60.33473300933838,81.73003168941243L62.6552996635437,79.41858608246362L64.97586631774902,79.01243964600435L67.29643297195435,81.90734867082651L69.61699962615967,84.9437161505715L71.937566280365,87.4763695113941L74.25813293457031,87.38169807363448L76.57869958877563,89.2224058240397L78.89926624298096,89.23794943623344L81.21983289718628,90.85572392488784L83.5403995513916,92.66162794900899L85.86096620559692,92.8416927433117L88.18153285980225,91.68975311103762L90.50209951400757,92.53131698228279L92.82266616821289,94.07406230394179L95.14323282241821,92.41506295983353L97.46379947662354,95.23886586682934L99.78436613082886,96.12122869186562L102.10493278503417,95.46544745248912L104.4254994392395,96.1815807610596L106.74606609344484,96.1936282781223L109.06663274765015,97.14889437972465L111.38719940185547,97.83448984282654L113.70776605606079,96.50330568025541L116.02833271026611,96.30926774085819L118.34889936447144,94.0028041020785L120.66946601867676,96.21753941899937L122.99003267288208,97.53186519470029L125.3105993270874,95.74755694936819L127.63116598129272,94.39041138669769L129.95173263549805,95.79127965659623L132.27229928970337,96.78880530115183L134.5928659439087,94.64581440126913L136.913432598114,96.06907249801459L139.23399925231934,95.2184738357143L141.55456590652466,92.14275437163617L143.87513256073,90.98301207109779L146.1956992149353,92.93776064899262L148.51626586914062,94.367243273579L150.83683252334595,96.44084087525421L153.15739917755127,96.31839097599483L155.4779658317566,94.27572740100048L157.7985324859619,93.72708412052069L160.11909914016724,95.29886994452495L162.43966579437256,94.4556853285684L164.76023244857788,94.51674794407832L167.0807991027832,93.91853316894378L169.4013657569885,94.04448409107903L171.72193241119385,94.20909013509376L174.04249906539917,94.11556814152425L176.3630657196045,94.40172515359558L178.68363237380984,92.3404217654898L181.00419902801514,93.1278872705843L183.32476568222046,93.38889149244784L185.64533233642578,93.63105856986668L187.9658989906311,93.26262265121885L190.28646564483643,91.38970340423582L192.60703229904175,90.00135384946472L194.92759895324707,90.25213962089262L197.2481656074524,89.58539870271748L199.56873226165771,88.80191984231628L201.88929891586304,87.63118860254222L204.20986557006833,87.83593614923626L206.53043222427368,87.56446831906142L208.850998878479,86.58057344071217L211.17156553268433,85.82336640269996L213.49213218688968,85.78205472788187L215.81269884109497,84.73309188957819L218.1332654953003,83.85462415211873L220.45383214950562,83.20272177917063L222.77439880371094,82.99221995753943L225.09496545791626,82.43581025112557L227.41553211212158,81.97789463494018L229.7360987663269,81.38099090601347L232.05666542053223,80.48826877844564L234.37723207473755,80.23824566774117L236.69779872894287,80.17600403598468L239.01836538314816,79.66291682193591L241.33893203735352,79.27649598161749L243.65949869155884,78.93526956400713L245.98006534576416,78.75629210620636L248.3006319999695,78.6461445146928L250.6211986541748,78.57772194381243L252.94176530838013,78.54679249633897L255.26233196258545,78.64059844730038" fill="none"></path></g><g><path style="fill: none;" stroke="rgb(255, 112, 67)" stroke-width="2px" d="M30.16736650466919,-28.791890072755113L32.48793315887451,5.63074368010961L34.808499813079834,29.683230710168477L37.129066467285156,45.70246577542621L39.44963312149048,57.98400408328414L41.7701997756958,66.62870870402212L44.09076642990112,72.24210163482167L46.411333084106445,77.33202280903247L48.73189973831177,82.03551993362807L51.05246639251708,86.43503597230871L53.37303304672242,89.64282251363402L55.693599700927734,92.71027276496832L58.01416635513306,94.36960462425786L60.33473300933838,96.77625576504741L62.6552996635437,99.38053761183203L64.97586631774902,100.30136220691884L67.29643297195435,102.12689391779948L69.61699962615967,104.26305468072029L71.937566280365,105.00962226834353L74.25813293457031,106.8692655913037L76.57869958877563,108.87281117089306L78.89926624298096,109.55619689986578L81.21983289718628,111.47866689923025L83.5403995513916,112.5766763338444L85.86096620559692,113.77409764128107L88.18153285980225,115.70310461218564L90.50209951400757,115.79677384981069L92.82266616821289,117.14126825469276L95.14323282241821,118.81444418998842L97.46379947662354,120.2529698859633L99.78436613082886,120.81820341984631L102.10493278503417,121.70713062571552L104.4254994392395,123.54384237965793L106.74606609344484,124.57389990826029L109.06663274765015,126.16023223131127L111.38719940185547,126.37284635151391L113.70776605606079,127.32532705250621L116.02833271026611,128.01659019361136L118.34889936447144,128.0486777370256L120.66946601867676,129.20383207292386L122.99003267288208,129.85886457343585L125.3105993270874,131.47611755979253L127.63116598129272,133.26114920490386L129.95173263549805,134.28168005768705L132.27229928970337,134.46287935101103L134.5928659439087,135.07721416024947L136.913432598114,135.78116742315584L139.23399925231934,137.06711927511233L141.55456590652466,138.4532313778102L143.87513256073,138.6686853374821L146.1956992149353,139.08133311898317L148.51626586914062,139.84174660396297L150.83683252334595,140.66227563626236L153.15739917755127,142.1051812153744L155.4779658317566,142.76860508038436L157.7985324859619,143.942656547346L160.11909914016724,143.67023858035057L162.43966579437256,144.9200434945827L164.76023244857788,145.78298485340457L167.0807991027832,146.85089467831176L169.4013657569885,147.7974959214491L171.72193241119385,148.2061480462182L174.04249906539917,149.156804671937L176.3630657196045,149.7982387546461L178.68363237380984,150.54387310611992L181.00419902801514,151.51087906157966L183.32476568222046,152.113403166466L185.64533233642578,152.32593462275943L187.9658989906311,153.31266613405697L190.28646564483643,154.69223090428272L192.60703229904175,154.78977768191712L194.92759895324707,155.6549428715937L197.2481656074524,156.66973464300233L199.56873226165771,157.3266284751726L201.88929891586304,158.16219757622872L204.20986557006833,158.6849422039477L206.53043222427368,159.06201646617438L208.850998878479,159.95480004097558L211.17156553268433,160.89405944513302L213.49213218688968,161.5679484741075L215.81269884109497,162.0565350556848L218.1332654953003,162.45736454561705L220.45383214950562,162.99249867078967L222.77439880371094,163.07151522135294L225.09496545791626,163.32190032420178L227.41553211212158,163.72500216533302L229.7360987663269,164.16479444151054L232.05666542053223,164.66395726528134L234.37723207473755,165.29170302540842L236.69779872894287,165.85988115557512L239.01836538314816,166.52095126070813L241.33893203735352,166.45952464272696L243.65949869155884,166.6408450257939L245.98006534576416,166.4236901204638L248.3006319999695,166.77622567724833L250.6211986541748,166.68848465669697L252.94176530838013,167.04947519713153L255.26233196258545,167.54190449146856" fill="none"></path></g></g></g></g><g opacity="0.2"><g><g><g><path style="fill: none;" stroke="rgb(0, 119, 187)" stroke-width="2px" d="M27.846799850463867,-157.47006018627783L30.16736650466919,36.52166230499271L32.48793315887451,-0.802546579639511L34.808499813079834,53.760099717457074L37.129066467285156,61.28358665343775L39.44963312149048,63.943913698873175L41.7701997756958,63.144919274985185L44.09076642990112,68.94400152387045L46.411333084106445,74.70739678885077L48.73189973831177,75.51258718297426L51.05246639251708,81.07157558523393L53.37303304672242,72.66110242476351L55.693599700927734,82.37245863696009L58.01416635513306,84.09650239375054L60.33473300933838,85.14193702212671L62.6552996635437,75.95239579835578L64.97586631774902,78.40332311185165L67.29643297195435,86.24927119780705L69.61699962615967,89.49798983417432L71.937566280365,91.27521065589855L74.25813293457031,87.23969403219911L76.57869958877563,91.98343110808395L78.89926624298096,89.26126467039518L81.21983289718628,93.28237415942084L83.5403995513916,95.37047628383499L85.86096620559692,93.1117894740294L88.18153285980225,89.96184543112514L90.50209951400757,93.7936620139512L92.82266616821289,96.3881794337785L95.14323282241821,89.9265644938133L97.46379947662354,99.47456966548076L99.78436613082886,97.44477282408366L102.10493278503417,94.48177564039662L104.4254994392395,97.2557806931382L106.74606609344484,96.21169955340571L109.06663274765015,98.58179351734864L111.38719940185547,98.86288303111496L113.70776605606079,94.5065294438132L116.02833271026611,96.01821083241072L118.34889936447144,90.54310864853363L120.66946601867676,99.5396423917162L122.99003267288208,99.50335385730295L125.3105993270874,93.07109458214285L127.63116598129272,92.35469304304456L129.95173263549805,97.89258206122557L132.27229928970337,98.28509376789192L134.5928659439087,91.43132805156534L136.913432598114,98.20395964308483L139.23399925231934,93.94257584228109L141.55456590652466,87.52917517555622L143.87513256073,89.24339862029865L146.1956992149353,95.86988351582642L148.51626586914062,96.51146721045478L150.83683252334595,99.5512372777637L153.15739917755127,96.1347161271059L155.4779658317566,91.21173203851009L157.7985324859619,92.90411919980122L160.11909914016724,97.65654868053099L162.43966579437256,93.19090840463369L164.76023244857788,94.60834186734314L167.0807991027832,93.021211006242L169.4013657569885,94.2334104742819L171.72193241119385,94.45599920111593L174.04249906539917,93.97528515116997L176.3630657196045,94.8309606717026L178.68363237380984,89.24846668333109L181.00419902801514,94.30908552822615L183.32476568222046,93.78039782524317L185.64533233642578,93.99430918599498L187.9658989906311,92.70996877324708L190.28646564483643,88.58032453376126L192.60703229904175,87.91882951730814L194.92759895324707,90.62831827803444L197.2481656074524,88.58528732545474L199.56873226165771,87.6267015517145L201.88929891586304,85.87509174288117L204.20986557006833,88.14305746927731L206.53043222427368,87.15726657379918L208.850998878479,85.1047311231883L211.17156553268433,84.6875558456816L213.49213218688968,85.72008721565473L215.81269884109497,83.15964763212267L218.1332654953003,82.53692254592956L220.45383214950562,82.22486821974846L222.77439880371094,82.67646722509267L225.09496545791626,81.60119569150477L227.41553211212158,81.29102121066211L229.7360987663269,80.48563531262342L232.05666542053223,79.14918558709395L234.37723207473755,79.86321100168445L236.69779872894287,80.08264158834992L239.01836538314816,78.89328600086274L241.33893203735352,78.69686472113979L243.65949869155884,78.4234299375916L245.98006534576416,78.48782591950521L248.3006319999695,78.48092312742246L250.6211986541748,78.47508808749194L252.94176530838013,78.5003983251287L255.26233196258545,78.78130737374252" fill="none"></path></g><g><path style="fill: none;" stroke="rgb(255, 112, 67)" stroke-width="2px" d="M27.846799850463867,-10.954042259997149L30.16736650466919,40.515070393111095L32.48793315887451,46.11176097347851L34.808499813079834,61.08615777661339L37.129066467285156,67.8628347953012L39.44963312149048,75.54680036813387L41.7701997756958,79.23277103022237L44.09076642990112,80.52076586230818L46.411333084106445,84.88996255296216L48.73189973831177,89.04810524777875L51.05246639251708,93.01036805832987L53.37303304672242,94.44402834600075L55.693599700927734,97.30543868759845L58.01416635513306,96.85665193088056L60.33473300933838,100.38453511938756L62.6552996635437,103.28585833721104L64.97586631774902,101.6823653022841L67.29643297195435,104.86491338273825L69.61699962615967,107.46710057154638L71.937566280365,106.12943270623762L74.25813293457031,109.65866938338831L76.57869958877563,111.87808998376457L78.89926624298096,110.58126739796944L81.21983289718628,114.36235823418302L83.5403995513916,114.22368580325696L85.86096620559692,115.57022653856315L88.18153285980225,118.59661210706238L90.50209951400757,115.93727761996567L92.82266616821289,119.15800911893422L95.14323282241821,121.32420753808856L97.46379947662354,122.4107581437071L99.78436613082886,121.66605365319327L102.10493278503417,123.04052137084733L104.4254994392395,126.29890993163554L106.74606609344484,126.11898617460272L109.06663274765015,128.5397306913446L111.38719940185547,126.69176752984416L113.70776605606079,128.7540480986895L116.02833271026611,129.05348490295899L118.34889936447144,128.09680905208262L120.66946601867676,130.9365635753815L122.99003267288208,130.841413323731L125.3105993270874,133.90199703862714L127.63116598129272,135.938696672107L129.95173263549805,135.81247633670276L132.27229928970337,134.73467829098L134.5928659439087,135.99871637407273L136.913432598114,136.83709731749173L139.23399925231934,138.99604705302102L141.55456590652466,140.53239953184024L143.87513256073,138.99186627698833L146.1956992149353,139.70030479123298L148.51626586914062,140.98236683143068L150.83683252334595,141.89306918471016L153.15739917755127,144.26953958404107L155.4779658317566,143.76374087789895L157.7985324859619,145.70373374778808L160.11909914016724,143.26161162985747L162.43966579437256,146.79475086593075L164.76023244857788,147.07739689163728L167.0807991027832,148.45275941567246L169.4013657569885,149.21739778615512L171.72193241119385,148.81912623337178L174.04249906539917,150.5827896105152L176.3630657196045,150.7603898787097L178.68363237380984,151.66232463333068L181.00419902801514,152.96138799476924L183.32476568222046,153.0171893237955L185.64533233642578,152.64473180719963L187.9658989906311,154.7927634010033L190.28646564483643,156.76157805962137L192.60703229904175,154.9360978483687L194.92759895324707,156.95269065610856L197.2481656074524,158.19192230011527L199.56873226165771,158.31196922342804L201.88929891586304,159.41555122781287L204.20986557006833,159.46905914552622L206.53043222427368,159.62762785951435L208.850998878479,161.29397540317737L211.17156553268433,162.30294855136916L213.49213218688968,162.5787820175692L215.81269884109497,162.78941492805077L218.1332654953003,163.05860878051544L220.45383214950562,163.79519985854859L222.77439880371094,163.19004004719784L225.09496545791626,163.69747797847506L227.41553211212158,164.32965492702988L229.7360987663269,164.82448285577686L232.05666542053223,165.41270150093757L234.37723207473755,166.23332166559896L236.69779872894287,166.71214835082515L239.01836538314816,167.51255641840766L241.33893203735352,166.36738471575518L243.65949869155884,166.91282560039434L245.98006534576416,166.09795776246858L248.3006319999695,167.3050290124252L250.6211986541748,166.55687312586997L252.94176530838013,167.59096100778333L255.26233196258545,168.28054843297411" fill="none"></path></g></g></g></g></g></g><g transform="translate(51, 176)" clip-path="url(#clip_1)"><clipPath id="clip_1"><rect width="278" height="23"></rect></clipPath><g><g><line x1="0" y1="0" x2="0" y2="5" style="visibility: inherit;" fill="rgb(0, 0, 0)" stroke="rgb(204, 204, 204)" stroke-width="1px"></line><line x1="23.205666542053223" y1="0" x2="23.205666542053223" y2="5" style="visibility: inherit;" fill="rgb(0, 0, 0)" stroke="rgb(204, 204, 204)" stroke-width="1px"></line><line x1="46.411333084106445" y1="0" x2="46.411333084106445" y2="5" style="visibility: inherit;" fill="rgb(0, 0, 0)" stroke="rgb(204, 204, 204)" stroke-width="1px"></line><line x1="69.61699962615967" y1="0" x2="69.61699962615967" y2="5" style="visibility: inherit;" fill="rgb(0, 0, 0)" stroke="rgb(204, 204, 204)" stroke-width="1px"></line><line x1="92.82266616821289" y1="0" x2="92.82266616821289" y2="5" style="visibility: inherit;" fill="rgb(0, 0, 0)" stroke="rgb(204, 204, 204)" stroke-width="1px"></line><line x1="116.02833271026611" y1="0" x2="116.02833271026611" y2="5" style="visibility: inherit;" fill="rgb(0, 0, 0)" stroke="rgb(204, 204, 204)" stroke-width="1px"></line><line x1="139.23399925231934" y1="0" x2="139.23399925231934" y2="5" style="visibility: inherit;" fill="rgb(0, 0, 0)" stroke="rgb(204, 204, 204)" stroke-width="1px"></line><line x1="162.43966579437256" y1="0" x2="162.43966579437256" y2="5" style="visibility: inherit;" fill="rgb(0, 0, 0)" stroke="rgb(204, 204, 204)" stroke-width="1px"></line><line x1="185.64533233642578" y1="0" x2="185.64533233642578" y2="5" style="visibility: inherit;" fill="rgb(0, 0, 0)" stroke="rgb(204, 204, 204)" stroke-width="1px"></line><line x1="208.850998878479" y1="0" x2="208.850998878479" y2="5" style="visibility: inherit;" fill="rgb(0, 0, 0)" stroke="rgb(204, 204, 204)" stroke-width="1px"></line><line x1="232.05666542053223" y1="0" x2="232.05666542053223" y2="5" style="visibility: inherit;" fill="rgb(0, 0, 0)" stroke="rgb(204, 204, 204)" stroke-width="1px"></line><line x1="255.26233196258545" y1="0" x2="255.26233196258545" y2="5" style="visibility: inherit;" fill="rgb(0, 0, 0)" stroke="rgb(204, 204, 204)" stroke-width="1px"></line><line x1="278.4679985046387" y1="0" x2="278.4679985046387" y2="5" style="visibility: inherit;" fill="rgb(0, 0, 0)" stroke="rgb(204, 204, 204)" stroke-width="1px"></line></g><g transform="translate(0, 8)"><text style="text-anchor: middle; visibility: hidden; font-family: Roboto, sans-serif; font-size: 12px; font-weight: 200;" x="0" y="0" dx="0em" dy="0.95em" fill="rgb(33, 33, 33)" stroke="none" stroke-width="1px">-1k</text><text style="text-anchor: middle; visibility: inherit; font-family: Roboto, sans-serif; font-size: 12px; font-weight: 200;" x="23.205666542053223" y="0" dx="0em" dy="0.95em" fill="rgb(33, 33, 33)" stroke="none" stroke-width="1px">0</text><text style="text-anchor: middle; visibility: inherit; font-family: Roboto, sans-serif; font-size: 12px; font-weight: 200;" x="46.411333084106445" y="0" dx="0em" dy="0.95em" fill="rgb(33, 33, 33)" stroke="none" stroke-width="1px">1k</text><text style="text-anchor: middle; visibility: inherit; font-family: Roboto, sans-serif; font-size: 12px; font-weight: 200;" x="69.61699962615967" y="0" dx="0em" dy="0.95em" fill="rgb(33, 33, 33)" stroke="none" stroke-width="1px">2k</text><text style="text-anchor: middle; visibility: inherit; font-family: Roboto, sans-serif; font-size: 12px; font-weight: 200;" x="92.82266616821289" y="0" dx="0em" dy="0.95em" fill="rgb(33, 33, 33)" stroke="none" stroke-width="1px">3k</text><text style="text-anchor: middle; visibility: inherit; font-family: Roboto, sans-serif; font-size: 12px; font-weight: 200;" x="116.02833271026611" y="0" dx="0em" dy="0.95em" fill="rgb(33, 33, 33)" stroke="none" stroke-width="1px">4k</text><text style="text-anchor: middle; visibility: inherit; font-family: Roboto, sans-serif; font-size: 12px; font-weight: 200;" x="139.23399925231934" y="0" dx="0em" dy="0.95em" fill="rgb(33, 33, 33)" stroke="none" stroke-width="1px">5k</text><text style="text-anchor: middle; visibility: inherit; font-family: Roboto, sans-serif; font-size: 12px; font-weight: 200;" x="162.43966579437256" y="0" dx="0em" dy="0.95em" fill="rgb(33, 33, 33)" stroke="none" stroke-width="1px">6k</text><text style="text-anchor: middle; visibility: inherit; font-family: Roboto, sans-serif; font-size: 12px; font-weight: 200;" x="185.64533233642578" y="0" dx="0em" dy="0.95em" fill="rgb(33, 33, 33)" stroke="none" stroke-width="1px">7k</text><text style="text-anchor: middle; visibility: inherit; font-family: Roboto, sans-serif; font-size: 12px; font-weight: 200;" x="208.850998878479" y="0" dx="0em" dy="0.95em" fill="rgb(33, 33, 33)" stroke="none" stroke-width="1px">8k</text><text style="text-anchor: middle; visibility: inherit; font-family: Roboto, sans-serif; font-size: 12px; font-weight: 200;" x="232.05666542053223" y="0" dx="0em" dy="0.95em" fill="rgb(33, 33, 33)" stroke="none" stroke-width="1px">9k</text><text style="text-anchor: middle; visibility: inherit; font-family: Roboto, sans-serif; font-size: 12px; font-weight: 200;" x="255.26233196258545" y="0" dx="0em" dy="0.95em" fill="rgb(33, 33, 33)" stroke="none" stroke-width="1px">10k</text><text style="text-anchor: middle; visibility: hidden; font-family: Roboto, sans-serif; font-size: 12px; font-weight: 200;" x="278.4679985046387" y="0" dx="0em" dy="0.95em" fill="rgb(33, 33, 33)" stroke="none" stroke-width="1px">11k</text></g><line x1="0" y1="0" x2="278.4679985046387" y2="0" fill="rgb(0, 0, 0)" stroke="rgb(204, 204, 204)" stroke-width="1px"></line></g></g></g></g></svg>